<svg xmlns="http://www.w3.org/2000/svg" width="121.626" height="121.626" viewBox="0 0 121.626 121.626">
  <g id="Grupo_1070060" data-name="Grupo 1070060" transform="translate(-141 -620.191)">
    <g id="Filled_outline" data-name="Filled outline" transform="translate(125 604.191)">
      <path id="Trazado_771080" data-name="Trazado 771080" d="M96.108,72h81.084a8.108,8.108,0,0,1,8.108,8.108v62.84a6.081,6.081,0,0,1-6.081,6.081H94.081A6.081,6.081,0,0,1,88,142.948V80.108A8.108,8.108,0,0,1,96.108,72Z" transform="translate(-53.756 -41.81)" fill="#4db7e5"/>
      <path id="Trazado_771081" data-name="Trazado 771081" d="M434.027,72H432v77.03h4.054V72.255A8.124,8.124,0,0,0,434.027,72Z" transform="translate(-310.591 -41.81)" fill="#48add9"/>
      <path id="Trazado_771082" data-name="Trazado 771082" d="M196.921,24H136.108A8.108,8.108,0,0,0,128,32.108v85.138h77.03V32.108A8.108,8.108,0,0,0,196.921,24Z" transform="translate(-83.621 -5.973)" fill="#348fd9"/>
      <path id="Trazado_771083" data-name="Trazado 771083" d="M213.989,100,140,173.989h73.989Z" transform="translate(-92.58 -62.715)" fill="#3086cd"/>
      <path id="Trazado_771084" data-name="Trazado 771084" d="M228.7,146.352q0,1.022-.076,2.027a26.318,26.318,0,0,1-22.607,24.069c-.542.079-1.09.137-1.642.18q-1,.076-2.027.076t-2.027-.076c-.552-.043-1.1-.1-1.642-.18a26.014,26.014,0,0,1-6.137-1.629,26.351,26.351,0,0,1-16.47-22.44q-.076-1-.076-2.027t.076-2.027A26.321,26.321,0,0,1,198.4,120.3q.954-.144,1.928-.22,1-.076,2.027-.076t2.027.076c.552.043,1.1.1,1.642.18a26,26,0,0,1,6.132,1.627,26.441,26.441,0,0,1,13.582,12.307,26.142,26.142,0,0,1,2.894,10.135Q228.7,145.329,228.7,146.352Z" transform="translate(-119.458 -77.648)" fill="#4db7e5"/>
      <path id="Trazado_771085" data-name="Trazado 771085" d="M228.629,148.379q.076-1,.076-2.027t-.076-2.027h-10.1a51.56,51.56,0,0,0-1.389-10.135h8.592a26.2,26.2,0,0,0-2.61-4.054h-7.156a41.685,41.685,0,0,0-3.816-8.253,26,26,0,0,0-6.132-1.627l1.414,1.824a35.507,35.507,0,0,1,4.229,8.055h-7.285V120.076q-1-.076-2.027-.076t-2.027.076v10.059H193.04a35.375,35.375,0,0,1,4.252-8.086c.025-.033.046-.068.068-.1L198.4,120.3a26.1,26.1,0,0,0-5.846,1.586,41.554,41.554,0,0,0-3.816,8.253H181.58a26.2,26.2,0,0,0-2.61,4.054h8.592a51.509,51.509,0,0,0-1.389,10.135h-10.1q-.076,1-.076,2.027t.076,2.027h10.1a50.8,50.8,0,0,0,1.936,12.163H180.14a26.452,26.452,0,0,0,3.2,4.054h6.147a39.439,39.439,0,0,0,3.061,6.223,26.017,26.017,0,0,0,6.137,1.629l-1.414-1.827a33.568,33.568,0,0,1-3.4-6.026h6.454v8.032q1,.076,2.027.076t2.027-.076V164.6h6.454a33.437,33.437,0,0,1-3.4,6.026l-1.414,1.827a26.019,26.019,0,0,0,6.137-1.629,39.212,39.212,0,0,0,3.061-6.223h6.147a26.452,26.452,0,0,0,3.2-4.054h-7.972a50.875,50.875,0,0,0,1.936-12.163Zm-28.3,12.163h-7.974a46.343,46.343,0,0,1-2.118-12.163h10.092Zm0-16.217H190.23a47.105,47.105,0,0,1,1.513-10.135h8.582Zm12.028,16.217h-7.974V148.379h10.092a46.436,46.436,0,0,1-2.118,12.163Zm-7.974-16.217V134.19h8.582a47.176,47.176,0,0,1,1.513,10.135Z" transform="translate(-119.458 -77.648)" fill="#60d1e0"/>
      <path id="Trazado_771086" data-name="Trazado 771086" d="M138.055,362.027a6.921,6.921,0,0,1-4.894,2.027H116.6a6.922,6.922,0,0,1-4.894-2.027A6.921,6.921,0,0,0,106.809,360H72v6.081a6.081,6.081,0,0,0,6.081,6.081h93.247a6.081,6.081,0,0,0,6.081-6.081V360H142.948a6.921,6.921,0,0,0-4.894,2.027Z" transform="translate(-41.81 -256.835)" fill="#e0e0de"/>
      <path id="Trazado_771087" data-name="Trazado 771087" d="M438.081,360v6.081A6.081,6.081,0,0,1,432,372.163h8.108a6.081,6.081,0,0,0,6.081-6.081V360Z" transform="translate(-310.591 -256.835)" fill="#d6d6d4"/>
      <path id="Trazado_771088" data-name="Trazado 771088" d="M80.759,356.561V381.9a4.5,4.5,0,0,1-.623,2.3,4.553,4.553,0,0,1-3.938,2.263H28.561a4.553,4.553,0,0,1-3.938-2.263A4.5,4.5,0,0,1,24,381.9V356.561a4.5,4.5,0,0,1,.623-2.3A4.553,4.553,0,0,1,28.561,352H76.2a4.553,4.553,0,0,1,3.938,2.263A4.5,4.5,0,0,1,80.759,356.561Z" transform="translate(-5.973 -250.862)" fill="#ffb531"/>
      <path id="Trazado_771089" data-name="Trazado 771089" d="M81.972,354.263c-6.276,3.494-16.371,5.762-27.756,5.762s-21.48-2.268-27.756-5.762A4.553,4.553,0,0,1,30.4,352H78.034A4.553,4.553,0,0,1,81.972,354.263Z" transform="translate(-7.81 -250.862)" fill="#ffcb73"/>
      <path id="Trazado_771090" data-name="Trazado 771090" d="M81.972,462.092a4.553,4.553,0,0,1-3.938,2.263H30.4a4.553,4.553,0,0,1-3.938-2.263c6.276-3.494,16.371-5.762,27.756-5.762S75.7,458.6,81.972,462.092Z" transform="translate(-7.81 -328.756)" fill="#ffa912"/>
      <path id="Trazado_771091" data-name="Trazado 771091" d="M70.3,216A22.3,22.3,0,0,0,48,238.3v12.163h8.108V238.3a14.19,14.19,0,1,1,28.379,0v12.163H92.6V238.3A22.3,22.3,0,0,0,70.3,216Z" transform="translate(-23.892 -149.323)" fill="#e0e0de"/>
      <path id="Trazado_771092" data-name="Trazado 771092" d="M124.16,398a6.081,6.081,0,1,0-8.108,5.708v4.428h4.054v-4.428A6.071,6.071,0,0,0,124.16,398Z" transform="translate(-71.672 -280.649)" fill="#95573a"/>
      <path id="Trazado_771093" data-name="Trazado 771093" d="M183.382,101.138h-2.027V38.3a10.147,10.147,0,0,0-10.135-10.135V26.135A10.147,10.147,0,0,0,161.084,16H100.271A10.147,10.147,0,0,0,90.136,26.135v2.027A10.147,10.147,0,0,0,80,38.3V62.623h4.054V38.3a6.088,6.088,0,0,1,6.081-6.081V60.6H94.19V26.135a6.088,6.088,0,0,1,6.081-6.081h60.813a6.088,6.088,0,0,1,6.081,6.081V95.057h4.054V32.217A6.088,6.088,0,0,1,177.3,38.3v62.84H148.921a8.878,8.878,0,0,0-6.319,2.621,4.875,4.875,0,0,1-3.472,1.433H128.65v4.054h10.48a8.9,8.9,0,0,0,6.339-2.621,4.852,4.852,0,0,1,3.452-1.433h32.434v4.054A4.059,4.059,0,0,1,177.3,113.3H128.65v4.054H177.3a8.118,8.118,0,0,0,8.108-8.108v-6.081A2.027,2.027,0,0,0,183.382,101.138Z" transform="translate(-47.783)"/>
      <path id="Trazado_771094" data-name="Trazado 771094" d="M120,272h4.054v14.19H120Z" transform="translate(-77.648 -191.133)"/>
      <path id="Trazado_771095" data-name="Trazado 771095" d="M159.995,48h4.054v4.054h-4.054Z" transform="translate(-107.508 -23.892)"/>
      <path id="Trazado_771096" data-name="Trazado 771096" d="M192,48h4.054v4.054H192Z" transform="translate(-131.4 -23.892)"/>
      <path id="Trazado_771097" data-name="Trazado 771097" d="M223.995,48h4.054v4.054h-4.054Z" transform="translate(-155.292 -23.892)"/>
      <path id="Trazado_771098" data-name="Trazado 771098" d="M160,80h60.813v4.054H160Z" transform="translate(-107.512 -47.783)"/>
      <path id="Trazado_771099" data-name="Trazado 771099" d="M192.415,163.9c-.429-.11-.862-.235-1.285-.372l-1.24,3.86c.5.16,1.008.307,1.5.435a28.376,28.376,0,1,0-16.674-42.727A28.024,28.024,0,0,0,171,133.833l3.945.933a23.957,23.957,0,0,1,2.614-6.548h6.27a51.787,51.787,0,0,0-1.427,12.163c0,1.4.057,2.822.168,4.216l4.041-.323c-.049-.618-.086-1.242-.112-1.865h10.093v12.163h-6.081v4.054h6.081v5.991A24.279,24.279,0,0,1,192.415,163.9Zm22.274-5.274a24.419,24.419,0,0,1-4.614,3.2c.51-1.037.983-2.1,1.41-3.2Zm3.677-4.054h-5.509a50.982,50.982,0,0,0,1.938-12.163h8.067A23.9,23.9,0,0,1,218.366,154.571Zm-25.218-37.888a24.214,24.214,0,0,1,3.444-.536v8.018h-7.279a35.846,35.846,0,0,1,3.836-7.482Zm7.5-.535a24.262,24.262,0,0,1,3.444.536,35.842,35.842,0,0,1,3.836,7.482h-7.279Zm8.58,12.072a47.144,47.144,0,0,1,1.513,10.135H200.646V128.219Zm13.632,10.135H214.8a51.434,51.434,0,0,0-1.388-10.135h6.268a24.1,24.1,0,0,1,3.179,10.135Zm-6.118-14.19h-4.507a43.556,43.556,0,0,0-2.176-5.261,24.1,24.1,0,0,1,6.682,5.261ZM187.181,118.9a43.563,43.563,0,0,0-2.176,5.261H180.5A24.1,24.1,0,0,1,187.181,118.9Zm-.682,19.451a47.132,47.132,0,0,1,1.512-10.135h8.58v10.135Zm14.147,4.054h10.093a46.434,46.434,0,0,1-2.122,12.163h-7.972Zm6.449,16.217a33.8,33.8,0,0,1-3,5.454,24.181,24.181,0,0,1-3.449.537v-5.991Z" transform="translate(-115.725 -71.677)"/>
      <path id="Trazado_771100" data-name="Trazado 771100" d="M70.732,242.5V232.325a24.325,24.325,0,1,0-48.65,0V242.5A6.826,6.826,0,0,0,16,249.277v24.883a6.824,6.824,0,0,0,6.816,6.816H70a6.824,6.824,0,0,0,6.816-6.816V249.277a6.826,6.826,0,0,0-6.081-6.776ZM46.406,212.054a20.294,20.294,0,0,1,20.271,20.271v10.135H62.623V232.325a16.217,16.217,0,1,0-32.434,0v10.135H26.135V232.325A20.294,20.294,0,0,1,46.406,212.054Zm12.163,30.406H34.244V232.325a12.163,12.163,0,1,1,24.325,0Zm14.19,31.7A2.765,2.765,0,0,1,70,276.921H22.816a2.765,2.765,0,0,1-2.762-2.762V249.277a2.765,2.765,0,0,1,2.762-2.762H70a2.765,2.765,0,0,1,2.762,2.762Z" transform="translate(0 -143.35)"/>
      <path id="Trazado_771101" data-name="Trazado 771101" d="M118.087,392a6.081,6.081,0,0,0-2.027,11.814v4.4h4.054v-4.4A6.081,6.081,0,0,0,118.087,392Zm0,8.108a2.027,2.027,0,1,1,2.027-2.027A2.027,2.027,0,0,1,118.087,400.108Z" transform="translate(-71.68 -280.726)"/>
    </g>
  </g>
</svg>
