<svg xmlns="http://www.w3.org/2000/svg" width="76.868" height="76.868" viewBox="0 0 76.868 76.868">
  <g id="Grupo_1070059" data-name="Grupo 1070059" transform="translate(-85 -28.283)">
    <g id="subir" transform="translate(85 28.283)">
      <g id="Grupo_107086" data-name="Grupo 107086" transform="translate(1.126 1.126)">
        <path id="Trazado_162974" data-name="Trazado 162974" d="M40.634,171.474V128.44a4.974,4.974,0,0,1,4.974-4.974h54.719a4.974,4.974,0,0,1,4.974,4.974v43.033Z" transform="translate(-35.659 -106.056)" fill="#7f13ba"/>
        <path id="Trazado_162975" data-name="Trazado 162975" d="M420.208,123.466h3.453a4.974,4.974,0,0,0-4.974,4.974v43.033h-3.453V128.44A4.975,4.975,0,0,1,420.208,123.466Z" transform="translate(-410.26 -106.056)" fill="#083142"/>
        <path id="Trazado_162976" data-name="Trazado 162976" d="M128.484,198.883V157.845a1.244,1.244,0,0,0-1.244-1.244H75.009a1.244,1.244,0,0,0-1.244,1.244v41.038h54.719Z" transform="translate(-63.816 -134.216)" fill="#c0a4ee"/>
        <path id="Trazado_162977" data-name="Trazado 162977" d="M408.194,156.6h3.453a1.244,1.244,0,0,0-1.244,1.244v41.038H406.95V157.845A1.244,1.244,0,0,1,408.194,156.6Z" transform="translate(-397.001 -134.216)" fill="#a173ee"/>
        <path id="Trazado_162978" data-name="Trazado 162978" d="M12.3,448.182H77.312a4.8,4.8,0,0,0,4.8-4.8v-3.944a1.2,1.2,0,0,0-1.2-1.2H8.7a1.2,1.2,0,0,0-1.2,1.2v3.944A4.8,4.8,0,0,0,12.3,448.182Z" transform="translate(-7.5 -373.566)" fill="#e9efff"/>
        <path id="Trazado_162979" data-name="Trazado 162979" d="M450.7,438.233h3.453a1.2,1.2,0,0,0-1.2,1.2v3.944a4.8,4.8,0,0,0,4.8,4.8H454.3a4.8,4.8,0,0,1-4.8-4.8v-3.944A1.2,1.2,0,0,1,450.7,438.233Z" transform="translate(-449.5 -373.566)" fill="#d3dcfb"/>
        <path id="Trazado_162980" data-name="Trazado 162980" d="M164.905,44.808h2.487a2.487,2.487,0,0,0,2.487-2.487V9.987A2.487,2.487,0,0,0,167.392,7.5H142.52a2.487,2.487,0,0,0-2.487,2.487v2.526Z" transform="translate(-115.161 -7.5)" fill="#d2e1f1"/>
        <path id="Trazado_162982" data-name="Trazado 162982" d="M301.754,7.5h3.453a2.487,2.487,0,0,0-2.487,2.487V17l-3.453-4.484V9.987A2.487,2.487,0,0,1,301.754,7.5Z" transform="translate(-274.395 -7.5)" fill="#b0c0d2"/>
        <path id="Trazado_162983" data-name="Trazado 162983" d="M175.569,85.628h25.042a2.4,2.4,0,0,0,2.4-2.4V43.035a2.4,2.4,0,0,0-2.4-2.4H175.569a2.4,2.4,0,0,0-2.4,2.4V83.226A2.4,2.4,0,0,0,175.569,85.628Z" transform="translate(-153.269 -35.659)" fill="#f3f9ff"/>
        <path id="Trazado_162984" data-name="Trazado 162984" d="M240.634,78.741h7.547a1.2,1.2,0,0,0,1.2-1.2V74.968a1.2,1.2,0,0,0-1.2-1.2h-7.547a1.2,1.2,0,0,0-1.2,1.2V77.54A1.2,1.2,0,0,0,240.634,78.741Z" transform="translate(-209.587 -63.818)" fill="#ffca54"/>
        <path id="Trazado_162985" data-name="Trazado 162985" d="M335.369,40.633h3.453a2.4,2.4,0,0,0-2.4,2.4V83.226a2.4,2.4,0,0,0,2.4,2.4h-3.453a2.4,2.4,0,0,1-2.4-2.4V43.035A2.4,2.4,0,0,1,335.369,40.633Z" transform="translate(-313.069 -35.659)" fill="#dee4f0"/>
        <path id="Trazado_162986" data-name="Trazado 162986" d="M275.9,73.767h3.453a1.2,1.2,0,0,0-1.2,1.2V77.54a1.2,1.2,0,0,0,1.2,1.2H275.9a1.2,1.2,0,0,1-1.2-1.2V74.968A1.2,1.2,0,0,1,275.9,73.767Z" transform="translate(-244.854 -63.818)" fill="#ffb476"/>
      </g>
      <g id="Grupo_107087" data-name="Grupo 107087">
        <path id="Trazado_162988" data-name="Trazado 162988" d="M2.327,64.667H4.975V23.511a6.107,6.107,0,0,1,6.1-6.1H19.9V8.5a3.532,3.532,0,0,1,3.528-3.528h1.446V3.613A3.617,3.617,0,0,1,28.485,0H53.357a3.617,3.617,0,0,1,3.613,3.613v13.8h8.823a6.107,6.107,0,0,1,6.1,6.1V64.667h2.647a2.33,2.33,0,0,1,2.327,2.327v3.944a5.937,5.937,0,0,1-5.93,5.93H13.327a1.126,1.126,0,1,1,0-2.252H57.206V73.255a1.126,1.126,0,1,1,2.252,0v1.361H62.18V73.255a1.126,1.126,0,1,1,2.252,0v1.361h2.723V73.255a1.126,1.126,0,0,1,2.252,0v1.361h1.531a3.682,3.682,0,0,0,3.678-3.678V66.994a.075.075,0,0,0-.075-.075H47.022v2.6a2.372,2.372,0,0,1-2.37,2.37H32.216a2.372,2.372,0,0,1-2.37-2.37v-2.6H2.327a.075.075,0,0,0-.075.075v3.944A3.682,3.682,0,0,0,5.93,74.616H8.822a1.126,1.126,0,0,1,0,2.252H5.93A5.937,5.937,0,0,1,0,70.938V66.994A2.33,2.33,0,0,1,2.327,64.667Zm8.748-45a3.853,3.853,0,0,0-3.848,3.848V64.667H9.949V24.755a2.372,2.372,0,0,1,2.37-2.37H19.9V19.662ZM22.15,8.5V48.693a1.278,1.278,0,0,0,1.276,1.276H48.468a1.278,1.278,0,0,0,1.276-1.276V38.434h0V8.5a1.278,1.278,0,0,0-1.276-1.276H26.287a1.093,1.093,0,0,1-.578,0H23.426A1.278,1.278,0,0,0,22.15,8.5Zm31.208-6.25H28.485a1.363,1.363,0,0,0-1.361,1.361V4.974H48.468A3.532,3.532,0,0,1,52,8.5V37.308h1.361a1.363,1.363,0,0,0,1.361-1.361V3.613a1.363,1.363,0,0,0-1.361-1.361ZM69.642,23.511a3.853,3.853,0,0,0-3.848-3.848H56.971v2.723H64.55a2.372,2.372,0,0,1,2.37,2.37v7.7a1.126,1.126,0,1,1-2.252,0v-7.7a.118.118,0,0,0-.118-.118H56.971v11.31a3.617,3.617,0,0,1-3.613,3.613H52v9.133a3.532,3.532,0,0,1-3.528,3.528H23.426A3.532,3.532,0,0,1,19.9,48.693V24.637H12.318a.118.118,0,0,0-.118.118V64.667H64.668V36.955a1.126,1.126,0,1,1,2.252,0V64.667h2.722ZM32.1,69.524a.118.118,0,0,0,.118.118H44.652a.118.118,0,0,0,.118-.118v-2.6H32.1v2.6Z" transform="translate(0 0)"/>
        <path id="Trazado_162989" data-name="Trazado 162989" d="M241.807,73.493H234.26a2.33,2.33,0,0,1-2.327-2.327V68.594a2.33,2.33,0,0,1,2.327-2.327h7.547a2.33,2.33,0,0,1,2.327,2.327v2.572a2.33,2.33,0,0,1-2.327,2.327Zm.075-4.9a.075.075,0,0,0-.075-.075H234.26a.075.075,0,0,0-.075.075v2.572a.075.075,0,0,0,.075.075h7.547a.075.075,0,0,0,.075-.075Z" transform="translate(-202.087 -56.318)"/>
        <path id="Trazado_162990" data-name="Trazado 162990" d="M199.926,132.533h19.9a1.126,1.126,0,0,1,0,2.252h-19.9a1.126,1.126,0,1,1,0-2.252Z" transform="translate(-173.928 -111.098)"/>
        <path id="Trazado_162991" data-name="Trazado 162991" d="M199.926,165.667h19.9a1.126,1.126,0,0,1,0,2.252h-19.9a1.126,1.126,0,1,1,0-2.252Z" transform="translate(-173.928 -139.258)"/>
        <path id="Trazado_162993" data-name="Trazado 162993" d="M199.926,165.667h19.9a1.126,1.126,0,0,1,0,2.252h-19.9a1.126,1.126,0,1,1,0-2.252Z" transform="translate(-173.928 -127.772)"/>
        <path id="Trazado_162992" data-name="Trazado 162992" d="M216.493,198.8h14.923a1.126,1.126,0,1,1,0,2.252H216.493a1.126,1.126,0,1,1,0-2.252Z" transform="translate(-188.008 -167.416)"/>
        <path id="Trazado_162994" data-name="Trazado 162994" d="M216.493,198.8h14.923a1.126,1.126,0,1,1,0,2.252H216.493a1.126,1.126,0,1,1,0-2.252Z" transform="translate(-188.008 -155.931)"/>
      </g>
    </g>
  </g>
</svg>
