<svg xmlns="http://www.w3.org/2000/svg" width="85" height="85" viewBox="0 0 85 85">
  <g id="Grupo_1070060" data-name="Grupo 1070060" transform="translate(-338 -2797)">
    <g id="Rectángulo_356043" data-name="Rectángulo 356043" transform="translate(338 2797)" fill="none" stroke="#ff6148" stroke-width="2">
      <rect width="85" height="85" rx="11" stroke="none"/>
      <rect x="1" y="1" width="83" height="83" rx="10" fill="none"/>
    </g>
    <path id="Trazado_773513" data-name="Trazado 773513" d="M58.331,22.755c0-.023,0-.046,0-.069A15.189,15.189,0,0,0,28.9,17.416a6.082,6.082,0,0,0-9.12,5.27c0,.01,0,.019,0,.028A13.133,13.133,0,0,0,7.5,35.818h0A13.133,13.133,0,0,0,20.633,48.951H56.979A13.133,13.133,0,0,0,70.111,35.818h0A13.134,13.134,0,0,0,58.331,22.755Z" transform="translate(341.445 2800.445)" fill="#d1e7f8"/>
    <path id="Trazado_773514" data-name="Trazado 773514" d="M7.5,396.821H70.111v11.107l-2.458,2.458H9.958L7.5,407.928Z" transform="translate(341.445 2460.17)" fill="#787680"/>
    <g id="Grupo_1046286" data-name="Grupo 1046286" transform="translate(356.26 2860.956)">
      <circle id="Elipse_6162" data-name="Elipse 6162" cx="2.818" cy="2.818" r="2.818" transform="translate(8.659)" fill="#57565c"/>
      <circle id="Elipse_6163" data-name="Elipse 6163" cx="2.818" cy="2.818" r="2.818" transform="translate(17.318)" fill="#57565c"/>
      <circle id="Elipse_6164" data-name="Elipse 6164" cx="2.818" cy="2.818" r="2.818" fill="#57565c"/>
    </g>
    <circle id="Elipse_6165" data-name="Elipse 6165" cx="2.818" cy="2.818" r="2.818" transform="translate(362.399 2860.956)" fill="#ffe477"/>
    <circle id="Elipse_6166" data-name="Elipse 6166" cx="2.818" cy="2.818" r="2.818" transform="translate(371.058 2860.956)" fill="#91dc5a"/>
    <circle id="Elipse_6167" data-name="Elipse 6167" cx="2.818" cy="2.818" r="2.818" transform="translate(353.74 2860.956)" fill="#ff7956"/>
    <rect id="Rectángulo_357290" data-name="Rectángulo 357290" width="5.418" height="7.594" transform="translate(377.542 2849.396)" fill="#57a4ff"/>
    <g id="Grupo_1046287" data-name="Grupo 1046287" transform="translate(348.945 2807.945)">
      <path id="Trazado_773515" data-name="Trazado 773515" d="M180.33,16.6a6.052,6.052,0,0,1,3.037.813,15.2,15.2,0,0,1,12.357-9.8,15.208,15.208,0,0,0-15.814,9C180.048,16.608,180.188,16.6,180.33,16.6Z" transform="translate(-158.189 -7.499)" fill="#b3d8f4"/>
      <path id="Trazado_773516" data-name="Trazado 773516" d="M11.279,98.978h0a13.133,13.133,0,0,1,12.279-13.1c0-.009,0-.019,0-.028a6.086,6.086,0,0,1,4.192-5.783,6.085,6.085,0,0,0-7.971,5.783c0,.009,0,.019,0,.028A13.133,13.133,0,0,0,7.5,98.978h0A13.133,13.133,0,0,0,20.633,112.11h3.779A13.133,13.133,0,0,1,11.279,98.978Z" transform="translate(-7.5 -70.658)" fill="#b3d8f4"/>
    </g>
    <path id="Trazado_773517" data-name="Trazado 773517" d="M11.279,407.928V396.821H7.5v11.107l2.458,2.458h3.779Z" transform="translate(341.445 2460.17)" fill="#57565c"/>
    <path id="Trazado_773518" data-name="Trazado 773518" d="M116.816,431.112a2.818,2.818,0,0,1,1.558-2.521,2.818,2.818,0,1,0,0,5.042A2.818,2.818,0,0,1,116.816,431.112Z" transform="translate(248.103 2432.662)" fill="#ffb655"/>
    <path id="Trazado_773519" data-name="Trazado 773519" d="M185.549,431.112a2.818,2.818,0,0,1,1.558-2.521,2.818,2.818,0,1,0,0,5.042A2.818,2.818,0,0,1,185.549,431.112Z" transform="translate(188.029 2432.662)" fill="#64c37d"/>
    <path id="Trazado_773520" data-name="Trazado 773520" d="M48.083,431.112a2.818,2.818,0,0,1,1.558-2.521,2.818,2.818,0,1,0,0,5.042A2.818,2.818,0,0,1,48.083,431.112Z" transform="translate(308.177 2432.662)" fill="#ff3f62"/>
    <rect id="Rectángulo_357291" data-name="Rectángulo 357291" width="2.52" height="7.594" transform="translate(377.542 2849.396)" fill="#006df0"/>
    <rect id="Rectángulo_357292" data-name="Rectángulo 357292" width="1.89" height="1.89" transform="translate(377.709 2845.303)"/>
    <rect id="Rectángulo_357293" data-name="Rectángulo 357293" width="1.89" height="1.89" transform="translate(380.859 2845.303)"/>
    <rect id="Rectángulo_357294" data-name="Rectángulo 357294" width="1.89" height="1.89" transform="translate(374.56 2845.303)"/>
    <rect id="Rectángulo_357295" data-name="Rectángulo 357295" width="1.89" height="1.89" transform="translate(384.008 2845.303)"/>
    <rect id="Rectángulo_357296" data-name="Rectángulo 357296" width="6.953" height="1.89" transform="translate(400.617 2866.462)"/>
    <path id="Trazado_773521" data-name="Trazado 773521" d="M14.077,43.342H50.424A14.079,14.079,0,0,0,52.7,15.371,16.135,16.135,0,0,0,21.845,9.578,7.028,7.028,0,0,0,12.327,15.3a14.078,14.078,0,0,0,1.75,28.046ZM13.259,17.1h5.428v-1.89H14.251a5.136,5.136,0,0,1,7.619-3.536l.97.56.389-1.05a14.244,14.244,0,0,1,27.6,4.942l0,.922.851.087a12.188,12.188,0,0,1-1.256,24.312H14.077A12.187,12.187,0,0,1,13.259,17.1Z" transform="translate(348 2807)"/>
    <g id="Grupo_1046288" data-name="Grupo 1046288" transform="translate(398.424 2836.264)">
      <path id="Trazado_773522" data-name="Trazado 773522" d="M472.778,232.295h-1.89a9.084,9.084,0,0,1-.16,1.7l1.856.355A10.978,10.978,0,0,0,472.778,232.295Z" transform="translate(-461.85 -232.295)" fill="#fff"/>
      <path id="Trazado_773523" data-name="Trazado 773523" d="M465.529,255.138l-1.8-.588a9.011,9.011,0,0,1-.683,1.565l1.653.916A10.919,10.919,0,0,0,465.529,255.138Z" transform="translate(-455.139 -251.746)" fill="#fff"/>
      <path id="Trazado_773524" data-name="Trazado 773524" d="M409.076,275.71l-1.524-1.117a9.08,9.08,0,0,1-7.3,3.71v1.89A10.976,10.976,0,0,0,409.076,275.71Z" transform="translate(-400.255 -269.264)" fill="#fff"/>
    </g>
    <path id="Trazado_773525" data-name="Trazado 773525" d="M0,401.764l3.012,3.012H61.489l3.012-3.012V389.321H0Zm1.89-10.554H62.611v9.771l-1.9,1.9H3.794l-1.9-1.9Z" transform="translate(348 2466.725)"/>
    <g id="Grupo_1046289" data-name="Grupo 1046289" transform="translate(392.533 2859.195)">
      <rect id="Rectángulo_357297" data-name="Rectángulo 357297" width="9.574" height="1.89" fill="#fff"/>
      <rect id="Rectángulo_357298" data-name="Rectángulo 357298" width="1.89" height="1.89" transform="translate(10.834)" fill="#fff"/>
      <rect id="Rectángulo_357299" data-name="Rectángulo 357299" width="1.89" height="1.89" transform="translate(13.984)" fill="#fff"/>
    </g>
    <path id="Trazado_773526" data-name="Trazado 773526" d="M110.558,428.319a3.762,3.762,0,1,0-3.762-3.762A3.767,3.767,0,0,0,110.558,428.319Zm0-5.635a1.873,1.873,0,1,1-1.873,1.873A1.875,1.875,0,0,1,110.558,422.684Z" transform="translate(254.658 2439.217)"/>
    <path id="Trazado_773527" data-name="Trazado 773527" d="M179.291,428.319a3.762,3.762,0,1,0-3.762-3.762A3.767,3.767,0,0,0,179.291,428.319Zm0-5.635a1.873,1.873,0,1,1-1.873,1.873A1.875,1.875,0,0,1,179.291,422.684Z" transform="translate(194.584 2439.217)"/>
    <path id="Trazado_773528" data-name="Trazado 773528" d="M41.825,428.319a3.762,3.762,0,1,0-3.762-3.762A3.767,3.767,0,0,0,41.825,428.319Zm0-5.635a1.873,1.873,0,1,1-1.873,1.873A1.875,1.875,0,0,1,41.825,422.684Z" transform="translate(314.732 2439.217)"/>
    <rect id="Rectángulo_357300" data-name="Rectángulo 357300" width="1.89" height="1.89" transform="translate(380.645 2862.828)"/>
    <rect id="Rectángulo_357301" data-name="Rectángulo 357301" width="1.89" height="1.89" transform="translate(386.944 2862.828)"/>
    <rect id="Rectángulo_357302" data-name="Rectángulo 357302" width="1.89" height="1.89" transform="translate(383.794 2862.828)"/>
    <rect id="Rectángulo_357303" data-name="Rectángulo 357303" width="1.89" height="3.815" transform="translate(376.597 2851.286)"/>
    <rect id="Rectángulo_357304" data-name="Rectángulo 357304" width="1.89" height="3.815" transform="translate(382.014 2851.286)"/>
    <g id="Grupo_1046290" data-name="Grupo 1046290" transform="translate(384.59 2810.149)">
      <path id="Trazado_773529" data-name="Trazado 773529" d="M339.97,50.041l1.89,0a13.04,13.04,0,0,0-6.5-11.229l-.947,1.635A11.144,11.144,0,0,1,339.97,50.041Z" transform="translate(-328.877 -37.07)" fill="#fff"/>
      <path id="Trazado_773530" data-name="Trazado 773530" d="M292.471,25.158A13.085,13.085,0,0,0,290.443,25v1.89a11.171,11.171,0,0,1,1.734.135Z" transform="translate(-290.443 -25)" fill="#fff"/>
      <path id="Trazado_773531" data-name="Trazado 773531" d="M315.619,29.176a12.914,12.914,0,0,0-1.92-.681l-.489,1.825a11.029,11.029,0,0,1,1.639.581Z" transform="translate(-310.342 -28.055)" fill="#fff"/>
    </g>
    <path id="Trazado_773532" data-name="Trazado 773532" d="M35.928,243.223v-1.89a9.049,9.049,0,0,1-9.038-9.038H25A10.94,10.94,0,0,0,35.928,243.223Z" transform="translate(326.149 2603.969)"/>
    <rect id="Rectángulo_357305" data-name="Rectángulo 357305" width="1.89" height="1.89" transform="translate(349.89 2847.088)"/>
    <rect id="Rectángulo_357306" data-name="Rectángulo 357306" width="1.89" height="1.89" transform="translate(349.89 2853.387)"/>
    <rect id="Rectángulo_357307" data-name="Rectángulo 357307" width="1.89" height="1.89" transform="translate(349.89 2850.237)"/>
    <rect id="Rectángulo_357308" data-name="Rectángulo 357308" width="1.89" height="1.89" transform="translate(408.72 2847.088)"/>
    <rect id="Rectángulo_357309" data-name="Rectángulo 357309" width="1.89" height="1.89" transform="translate(408.72 2850.237)"/>
    <rect id="Rectángulo_357310" data-name="Rectángulo 357310" width="1.89" height="1.89" transform="translate(408.72 2853.387)"/>
    <rect id="Rectángulo_357311" data-name="Rectángulo 357311" width="1.89" height="3.233" transform="translate(379.306 2851.597)"/>
  </g>
</svg>
