<svg xmlns="http://www.w3.org/2000/svg" width="82" height="82" viewBox="0 0 82 82">
  <g id="Grupo_1070056" data-name="Grupo 1070056" transform="translate(-245.447 -23.151)">
    <path id="Trazado_773646" data-name="Trazado 773646" d="M52.2,28V41.667c0,3.772-11.015,6.833-24.6,6.833S3,45.439,3,41.667V28c0,3.772,11.015,6.833,24.6,6.833S52.2,31.772,52.2,28Z" transform="translate(243.814 30.685)" fill="#c0ab91"/>
    <path id="Trazado_773647" data-name="Trazado 773647" d="M69.067,35.133v8.2l-6.232,1.039A17.883,17.883,0,0,1,61.5,47.625l3.663,5.139-5.795,5.795L55,55.456A2.752,2.752,0,0,0,56.767,52.9V41.967a2.692,2.692,0,0,0-.15-.888,11.726,11.726,0,0,0,.15-1.845A10.933,10.933,0,0,0,39,30.705V22.833a17.779,17.779,0,0,1,1.695-.6L41.733,16h8.2l1.039,6.232a17.884,17.884,0,0,1,3.253,1.339l5.139-3.663L65.158,25.7,61.5,30.842a17.884,17.884,0,0,1,1.339,3.253Z" transform="translate(257.014 26.285)" fill="#ffeb99"/>
    <rect id="Rect치ngulo_373673" data-name="Rect치ngulo 373673" width="54.742" height="15.396" rx="2" transform="translate(259.076 88.101)" fill="#57a4ff"/>
    <path id="Trazado_773648" data-name="Trazado 773648" d="M54.2,51.733V62.667A2.742,2.742,0,0,1,51.467,65.4H46a2.742,2.742,0,0,0,2.733-2.733V51.733A2.742,2.742,0,0,0,46,49h5.467A2.742,2.742,0,0,1,54.2,51.733Z" transform="translate(259.581 38.385)" fill="#2488ff"/>
    <path id="Trazado_773649" data-name="Trazado 773649" d="M56.767,35.932a11.725,11.725,0,0,1-.15,1.845,2.751,2.751,0,0,0-2.583-1.845H39V27.4a10.933,10.933,0,0,1,17.767,8.528Z" transform="translate(257.014 29.586)" fill="#c6c5ca"/>
    <path id="Trazado_773650" data-name="Trazado 773650" d="M55.659,35.933a11.725,11.725,0,0,1-.15,1.845,2.751,2.751,0,0,0-2.583-1.845H50.193A10.957,10.957,0,0,0,42.02,25.341,10.933,10.933,0,0,1,55.659,35.933Z" transform="translate(258.121 29.585)" fill="#acabb1"/>
    <path id="Trazado_773651" data-name="Trazado 773651" d="M42,45h8.2v5.467H42Z" transform="translate(258.114 36.918)" fill="#c6c5ca"/>
    <path id="Trazado_773652" data-name="Trazado 773652" d="M52.2,18V31.667c0,3.772-11.015,6.833-24.6,6.833S3,35.439,3,31.667V18c0,3.772,11.015,6.833,24.6,6.833S52.2,21.772,52.2,18Z" transform="translate(243.814 27.018)" fill="#c0ab91"/>
    <path id="Trazado_773653" data-name="Trazado 773653" d="M52.2,8V21.667c0,3.772-11.015,6.833-24.6,6.833S3,25.439,3,21.667V8c0,3.772,11.015,6.833,24.6,6.833S52.2,11.772,52.2,8Z" transform="translate(243.814 23.352)" fill="#c0ab91"/>
    <ellipse id="Elipse_5989" data-name="Elipse 5989" cx="24.805" cy="6.843" rx="24.805" ry="6.843" transform="translate(247.101 24.805)" fill="#ffcd00"/>
    <g id="Grupo_1065468" data-name="Grupo 1065468" transform="translate(268.681 31.352)">
      <path id="Trazado_773654" data-name="Trazado 773654" d="M46.333,28V41.667c0,3.772-11.015,6.833-24.6,6.833-.929,0-1.831-.014-2.733-.055,12.3-.369,21.867-3.266,21.867-6.779V32.291C44.283,31.116,46.333,29.626,46.333,28Z" transform="translate(-19 -0.667)" fill="#b39a7c"/>
      <path id="Trazado_773655" data-name="Trazado 773655" d="M40.467,18V31.667c0,1.626-2.05,3.116-5.467,4.291V22.291C38.417,21.116,40.467,19.626,40.467,18Z" transform="translate(-13.133 -4.333)" fill="#b39a7c"/>
      <path id="Trazado_773656" data-name="Trazado 773656" d="M40.467,8V21.667c0,1.626-2.05,3.116-5.467,4.291V12.291C38.417,11.116,40.467,9.626,40.467,8Z" transform="translate(-13.133 -8)" fill="#b39a7c"/>
    </g>
    <path id="Trazado_773657" data-name="Trazado 773657" d="M46.333,9.833c0,3.772-11.015,6.833-24.6,6.833-.929,0-1.831-.014-2.733-.055,12.3-.369,21.867-3.266,21.867-6.779S31.3,3.424,19,3.055C19.9,3.014,20.8,3,21.733,3,35.318,3,46.333,6.061,46.333,9.833Z" transform="translate(249.681 21.518)" fill="#ebbf00"/>
    <path id="Trazado_773658" data-name="Trazado 773658" d="M24,53h5.467v5.467H24Z" transform="translate(251.514 39.852)" fill="#ffeb99"/>
    <rect id="Rect치ngulo_373674" data-name="Rect치ngulo 373674" width="54.742" height="15.396" rx="2" transform="translate(259.076 65.862)" fill="#57a4ff"/>
    <path id="Trazado_773659" data-name="Trazado 773659" d="M54.2,35.733V46.667A2.742,2.742,0,0,1,51.467,49.4H46a2.742,2.742,0,0,0,2.733-2.733V35.733A2.742,2.742,0,0,0,46,33h5.467A2.742,2.742,0,0,1,54.2,35.733Z" transform="translate(259.581 32.518)" fill="#2488ff"/>
    <path id="Trazado_773660" data-name="Trazado 773660" d="M24,37h5.467v5.467H24Z" transform="translate(251.514 33.985)" fill="#ffeb99"/>
    <path id="Trazado_773661" data-name="Trazado 773661" d="M16,45h8.2v5.467H16Z" transform="translate(248.581 36.918)" fill="#c6c5ca"/>
    <path id="Trazado_773662" data-name="Trazado 773662" d="M16,53h5.467v5.467H16Z" transform="translate(248.581 39.852)" fill="#ffeb99"/>
    <path id="Trazado_773663" data-name="Trazado 773663" d="M16,37h5.467v5.467H16Z" transform="translate(248.581 33.985)" fill="#ffeb99"/>
    <path id="Trazado_773664" data-name="Trazado 773664" d="M21.833,36H16.367A1.367,1.367,0,0,0,15,37.367v5.467A1.367,1.367,0,0,0,16.367,44.2h5.467A1.367,1.367,0,0,0,23.2,42.833V37.367A1.367,1.367,0,0,0,21.833,36Zm-1.367,5.467H17.733V38.733h2.733Z" transform="translate(248.214 33.618)"/>
    <path id="Trazado_773665" data-name="Trazado 773665" d="M29.833,36H24.367A1.367,1.367,0,0,0,23,37.367v5.467A1.367,1.367,0,0,0,24.367,44.2h5.467A1.367,1.367,0,0,0,31.2,42.833V37.367A1.367,1.367,0,0,0,29.833,36Zm-1.367,5.467H25.733V38.733h2.733Z" transform="translate(251.147 33.618)"/>
    <path id="Trazado_773666" data-name="Trazado 773666" d="M31,36H50.133v2.733H31Z" transform="translate(254.081 33.618)"/>
    <path id="Trazado_773667" data-name="Trazado 773667" d="M47,36h2.733v2.733H47Z" transform="translate(259.947 33.618)"/>
    <path id="Trazado_773668" data-name="Trazado 773668" d="M31,40H50.133v2.733H31Z" transform="translate(254.081 35.084)"/>
    <path id="Trazado_773669" data-name="Trazado 773669" d="M47,40h2.733v2.733H47Z" transform="translate(259.947 35.084)"/>
    <path id="Trazado_773670" data-name="Trazado 773670" d="M16.367,60.2h5.467A1.367,1.367,0,0,0,23.2,58.833V53.367A1.367,1.367,0,0,0,21.833,52H16.367A1.367,1.367,0,0,0,15,53.367v5.467A1.367,1.367,0,0,0,16.367,60.2Zm1.367-5.467h2.733v2.733H17.733Z" transform="translate(248.214 39.485)"/>
    <path id="Trazado_773671" data-name="Trazado 773671" d="M24.367,60.2h5.467A1.367,1.367,0,0,0,31.2,58.833V53.367A1.367,1.367,0,0,0,29.833,52H24.367A1.367,1.367,0,0,0,23,53.367v5.467A1.367,1.367,0,0,0,24.367,60.2Zm1.367-5.467h2.733v2.733H25.733Z" transform="translate(251.147 39.485)"/>
    <path id="Trazado_773672" data-name="Trazado 773672" d="M31,52H50.133v2.733H31Z" transform="translate(254.081 39.485)"/>
    <path id="Trazado_773673" data-name="Trazado 773673" d="M47,52h2.733v2.733H47Z" transform="translate(259.947 39.485)"/>
    <path id="Trazado_773674" data-name="Trazado 773674" d="M31,56H50.133v2.733H31Z" transform="translate(254.081 40.951)"/>
    <path id="Trazado_773675" data-name="Trazado 773675" d="M47,56h2.733v2.733H47Z" transform="translate(259.947 40.951)"/>
    <path id="Trazado_773676" data-name="Trazado 773676" d="M82.852,38.914l-5.412-.9a15.652,15.652,0,0,0-.793-1.913l3.184-4.469a1.367,1.367,0,0,0-.137-1.763L73.9,24.072a1.367,1.367,0,0,0-1.763-.137l-4.469,3.184a19.444,19.444,0,0,0-1.913-.793l-.9-5.412A1.367,1.367,0,0,0,63.5,19.767H55.3a1.367,1.367,0,0,0-1.353,1.148l-.014.109V10.2c0-5.385-13.065-8.2-25.967-8.2S2,4.815,2,10.2v41c0,4.141,7.271,6.164,12.327,7.079A4.088,4.088,0,0,0,18.4,62.133h1.367v2.733H18.4a4.112,4.112,0,0,0-4.1,4.1V79.9A4.112,4.112,0,0,0,18.4,84H67.6a4.112,4.112,0,0,0,4.1-4.1V68.967a4.112,4.112,0,0,0-4.1-4.1H66.233V62.133H67.6a3.737,3.737,0,0,0,.683-.068l3.854,2.747a1.424,1.424,0,0,0,.793.246,1.4,1.4,0,0,0,.97-.4L79.7,58.867a1.367,1.367,0,0,0,.137-1.763l-3.184-4.469a15.651,15.651,0,0,0,.793-1.913l5.412-.9A1.367,1.367,0,0,0,84,48.467v-8.2a1.367,1.367,0,0,0-1.148-1.353ZM53.933,36.563A9.511,9.511,0,0,1,68.9,43.232,4.116,4.116,0,0,0,67.6,43H53.933ZM27.967,4.733C43,4.733,51.2,8.341,51.2,10.2S43,15.667,27.967,15.667,4.733,12.059,4.733,10.2,12.933,4.733,27.967,4.733ZM4.733,14.054C9.23,16.91,18.619,18.4,27.967,18.4S46.7,16.91,51.2,14.054v9.813c0,1.859-8.2,5.467-23.233,5.467S4.733,25.725,4.733,23.867ZM14.3,47.1v8.391C7.371,54.179,4.733,52.2,4.733,51.2V41.387a29.359,29.359,0,0,0,10.332,3.335A4.08,4.08,0,0,0,14.3,47.1ZM4.733,37.533V27.721c4.5,2.856,13.885,4.346,23.233,4.346S46.7,30.577,51.2,27.721v9.813C51.2,39.392,43,43,27.967,43S4.733,39.392,4.733,37.533ZM51.2,41.387V43H47.811A17.041,17.041,0,0,0,51.2,41.387ZM67.6,67.6a1.367,1.367,0,0,1,1.367,1.367V79.9A1.367,1.367,0,0,1,67.6,81.267H18.4A1.367,1.367,0,0,1,17.033,79.9V68.967A1.367,1.367,0,0,1,18.4,67.6ZM22.5,64.867V62.133h5.467v2.733Zm8.2,0V62.133H55.3v2.733Zm27.333,0V62.133H63.5v2.733Zm10.933-6.833A1.367,1.367,0,0,1,67.6,59.4H18.4a1.367,1.367,0,0,1-1.367-1.367V47.1A1.367,1.367,0,0,1,18.4,45.733H67.6A1.367,1.367,0,0,1,68.967,47.1Zm12.3-10.728-5.084.847a1.4,1.4,0,0,0-1.093.957,16.14,16.14,0,0,1-1.23,3.007,1.334,1.334,0,0,0,.1,1.435l2.979,4.2L72.78,61.9l-1.941-1.38a4.062,4.062,0,0,0,.861-2.487V47.1a3.887,3.887,0,0,0-.137-.984,12.734,12.734,0,0,0,.137-1.749,12.273,12.273,0,0,0-17.767-11V28.937a6.736,6.736,0,0,1,.738-.26,1.4,1.4,0,0,0,.943-1.093l.847-5.084h5.877l.847,5.084a1.4,1.4,0,0,0,.957,1.093,16.537,16.537,0,0,1,3.007,1.23,1.367,1.367,0,0,0,1.435-.1l4.2-2.979,4.155,4.155-2.979,4.2a1.334,1.334,0,0,0-.1,1.435,16.141,16.141,0,0,1,1.23,3.007,1.4,1.4,0,0,0,1.093.957l5.084.847Z" transform="translate(243.447 21.151)"/>
    <path id="Trazado_773677" data-name="Trazado 773677" d="M6.733,48H4V58.933A1.367,1.367,0,0,0,5.367,60.3h5.467V57.567h-4.1Z" transform="translate(244.181 38.018)"/>
    <path id="Trazado_773678" data-name="Trazado 773678" d="M66.867,4H45V6.733H65.5v13.1l-3.7,3.7,1.932,1.932,4.1-4.1a1.367,1.367,0,0,0,.4-.966V5.367A1.367,1.367,0,0,0,66.867,4Z" transform="translate(259.214 21.885)"/>
    <path id="Trazado_773679" data-name="Trazado 773679" d="M41,4h2.733V6.733H41Z" transform="translate(257.747 21.885)"/>
    <path id="Trazado_773680" data-name="Trazado 773680" d="M4,44H6.733v2.733H4Z" transform="translate(244.181 36.551)"/>
  </g>
</svg>
