<svg xmlns="http://www.w3.org/2000/svg" width="85" height="85" viewBox="0 0 85 85">
  <g id="Grupo_1070059" data-name="Grupo 1070059" transform="translate(-758 -2736)">
    <g id="Grupo_1046341" data-name="Grupo 1046341" transform="translate(-420 -61)">
      <g id="Rectángulo_356043" data-name="Rectángulo 356043" transform="translate(1178 2797)" fill="none" stroke="#ff6148" stroke-width="2">
        <rect width="85" height="85" rx="11" stroke="none"/>
        <rect x="1" y="1" width="83" height="83" rx="10" fill="none"/>
      </g>
      <path id="Trazado_773533" data-name="Trazado 773533" d="M93.28,93.817V30.973A1.478,1.478,0,0,0,91.807,29.5H44.488a1.478,1.478,0,0,0-1.473,1.473V93.817a1.926,1.926,0,0,0,1.926,1.926H91.354A1.925,1.925,0,0,0,93.28,93.817Z" transform="translate(1151.873 2776.689)" fill="#f5c84c"/>
      <path id="Trazado_773534" data-name="Trazado 773534" d="M93.28,35.076v-4.1A1.478,1.478,0,0,0,91.807,29.5H44.488a1.478,1.478,0,0,0-1.473,1.473v4.1H93.28Z" transform="translate(1152.724 2777.239)" fill="#5290db"/>
      <path id="Trazado_773535" data-name="Trazado 773535" d="M49.3,29.5H44.488a1.478,1.478,0,0,0-1.473,1.473v4.1H49.3Z" transform="translate(1152.724 2777.239)" fill="#fc657e"/>
      <path id="Trazado_773539" data-name="Trazado 773539" d="M190.913,37.621h-3.479a.739.739,0,0,1,0-1.479h3.479a.739.739,0,1,1,0,1.479Z" transform="translate(1051.534 2772.562)"/>
      <path id="Trazado_773540" data-name="Trazado 773540" d="M104.06,37.621H73.7a.739.739,0,0,1,0-1.479H104.06a.739.739,0,1,1,0,1.479Z" transform="translate(1131.636 2772.562)"/>
      <path id="Trazado_773541" data-name="Trazado 773541" d="M91.813,47.333H42.085a.739.739,0,0,1,0-1.479H91.813a.739.739,0,0,1,0,1.479Z" transform="translate(1153.9 2765.722)"/>
      <path id="Trazado_773542" data-name="Trazado 773542" d="M62.5,34.478a.739.739,0,0,1-.739-.739V28.679a.739.739,0,1,1,1.479,0v5.059A.739.739,0,0,1,62.5,34.478Z" transform="translate(1139.52 2778.338)"/>
      <path id="Trazado_773543" data-name="Trazado 773543" d="M89.593,94.722H43.18a2.668,2.668,0,0,1-2.665-2.665V29.213A2.215,2.215,0,0,1,42.728,27H90.046a2.215,2.215,0,0,1,2.213,2.213V92.057A2.668,2.668,0,0,1,89.593,94.722ZM42.728,28.479a.735.735,0,0,0-.734.734V92.057a1.188,1.188,0,0,0,1.186,1.186H89.593a1.188,1.188,0,0,0,1.187-1.186V29.213a.735.735,0,0,0-.734-.734Z" transform="translate(1154.485 2779)"/>
      <g id="Grupo_1046306" data-name="Grupo 1046306" transform="translate(1213.333 2827.164)">
        <path id="Trazado_773544" data-name="Trazado 773544" d="M111.148,100.044h-7.9a.739.739,0,1,1,0-1.479h7.9a.739.739,0,1,1,0,1.479Z" transform="translate(-102.509 -98.565)"/>
      </g>
      <g id="Grupo_1046307" data-name="Grupo 1046307" transform="translate(1204.722 2827.164)">
        <path id="Trazado_773545" data-name="Trazado 773545" d="M79.42,100.044H74.13a.739.739,0,0,1,0-1.479h5.29a.739.739,0,1,1,0,1.479Z" transform="translate(-73.391 -98.565)"/>
      </g>
      <g id="Grupo_1046308" data-name="Grupo 1046308" transform="translate(1234.015 2830.739)">
        <path id="Trazado_773546" data-name="Trazado 773546" d="M175.3,112.133h-2.119a.739.739,0,0,1,0-1.479H175.3a.739.739,0,0,1,0,1.479Z" transform="translate(-172.444 -110.654)"/>
      </g>
      <g id="Grupo_1046309" data-name="Grupo 1046309" transform="translate(1222.139 2830.739)">
        <path id="Trazado_773547" data-name="Trazado 773547" d="M141.378,112.133h-8.353a.739.739,0,0,1,0-1.479h8.353a.739.739,0,0,1,0,1.479Z" transform="translate(-132.286 -110.654)"/>
      </g>
      <g id="Grupo_1046310" data-name="Grupo 1046310" transform="translate(1216.554 2830.739)">
        <path id="Trazado_773548" data-name="Trazado 773548" d="M116.126,112.133h-1.988a.739.739,0,0,1,0-1.479h1.988a.739.739,0,0,1,0,1.479Z" transform="translate(-113.399 -110.654)"/>
      </g>
      <g id="Grupo_1046311" data-name="Grupo 1046311" transform="translate(1204.722 2830.739)">
        <path id="Trazado_773549" data-name="Trazado 773549" d="M82.238,112.133H74.13a.739.739,0,0,1,0-1.479h8.108a.739.739,0,0,1,0,1.479Z" transform="translate(-73.391 -110.654)"/>
      </g>
      <g id="Grupo_1046312" data-name="Grupo 1046312" transform="translate(1227.289 2834.313)">
        <path id="Trazado_773550" data-name="Trazado 773550" d="M159.284,124.222h-8.845a.739.739,0,1,1,0-1.479h8.845a.739.739,0,1,1,0,1.479Z" transform="translate(-149.7 -122.743)"/>
      </g>
      <g id="Grupo_1046313" data-name="Grupo 1046313" transform="translate(1211.22 2834.313)">
        <path id="Trazado_773551" data-name="Trazado 773551" d="M108.48,124.222H96.1a.739.739,0,1,1,0-1.479H108.48a.739.739,0,0,1,0,1.479Z" transform="translate(-95.362 -122.743)"/>
      </g>
      <g id="Grupo_1046314" data-name="Grupo 1046314" transform="translate(1204.722 2834.313)">
        <path id="Trazado_773552" data-name="Trazado 773552" d="M76.977,124.222H74.13a.739.739,0,1,1,0-1.479h2.846a.739.739,0,1,1,0,1.479Z" transform="translate(-73.391 -122.743)"/>
      </g>
      <g id="Grupo_1046315" data-name="Grupo 1046315" transform="translate(1213.333 2837.832)">
        <path id="Trazado_773553" data-name="Trazado 773553" d="M111.148,136.117h-7.9a.739.739,0,1,1,0-1.479h7.9a.739.739,0,1,1,0,1.479Z" transform="translate(-102.509 -134.638)"/>
      </g>
      <g id="Grupo_1046316" data-name="Grupo 1046316" transform="translate(1204.722 2837.832)">
        <path id="Trazado_773554" data-name="Trazado 773554" d="M79.42,136.117H74.13a.739.739,0,0,1,0-1.479h5.29a.739.739,0,1,1,0,1.479Z" transform="translate(-73.391 -134.638)"/>
      </g>
      <g id="Grupo_1046317" data-name="Grupo 1046317" transform="translate(1234.015 2841.406)">
        <path id="Trazado_773555" data-name="Trazado 773555" d="M175.3,148.206h-2.119a.739.739,0,0,1,0-1.479H175.3a.739.739,0,0,1,0,1.479Z" transform="translate(-172.444 -146.727)"/>
      </g>
      <g id="Grupo_1046318" data-name="Grupo 1046318" transform="translate(1222.139 2841.406)">
        <path id="Trazado_773556" data-name="Trazado 773556" d="M141.378,148.206h-8.353a.739.739,0,0,1,0-1.479h8.353a.739.739,0,0,1,0,1.479Z" transform="translate(-132.286 -146.727)"/>
      </g>
      <g id="Grupo_1046319" data-name="Grupo 1046319" transform="translate(1216.554 2841.406)">
        <path id="Trazado_773557" data-name="Trazado 773557" d="M116.126,148.206h-1.988a.739.739,0,0,1,0-1.479h1.988a.739.739,0,0,1,0,1.479Z" transform="translate(-113.399 -146.727)"/>
      </g>
      <g id="Grupo_1046320" data-name="Grupo 1046320" transform="translate(1204.722 2841.406)">
        <path id="Trazado_773558" data-name="Trazado 773558" d="M82.238,148.206H74.13a.739.739,0,0,1,0-1.479h8.108a.739.739,0,0,1,0,1.479Z" transform="translate(-73.391 -146.727)"/>
      </g>
      <g id="Grupo_1046321" data-name="Grupo 1046321" transform="translate(1227.289 2844.981)">
        <path id="Trazado_773559" data-name="Trazado 773559" d="M159.284,160.293h-8.845a.739.739,0,1,1,0-1.479h8.845a.739.739,0,1,1,0,1.479Z" transform="translate(-149.7 -158.814)"/>
      </g>
      <g id="Grupo_1046322" data-name="Grupo 1046322" transform="translate(1201.178 2847.853)">
        <path id="Trazado_773560" data-name="Trazado 773560" d="M108.48,160.293H96.1a.739.739,0,1,1,0-1.479H108.48a.739.739,0,0,1,0,1.479Z" transform="translate(-95.362 -158.814)"/>
      </g>
      <g id="Grupo_1046323" data-name="Grupo 1046323" transform="translate(1204.722 2844.981)">
        <path id="Trazado_773561" data-name="Trazado 773561" d="M76.977,160.293H74.13a.739.739,0,1,1,0-1.479h2.846a.739.739,0,1,1,0,1.479Z" transform="translate(-73.391 -158.814)"/>
      </g>
      <g id="Grupo_1046324" data-name="Grupo 1046324" transform="translate(1213.333 2848.499)">
        <path id="Trazado_773562" data-name="Trazado 773562" d="M111.148,172.189h-7.9a.739.739,0,0,1,0-1.479h7.9a.739.739,0,0,1,0,1.479Z" transform="translate(-102.509 -170.71)"/>
      </g>
      <g id="Grupo_1046325" data-name="Grupo 1046325" transform="translate(1204.722 2848.499)">
        <path id="Trazado_773563" data-name="Trazado 773563" d="M79.42,172.189H74.13a.739.739,0,1,1,0-1.479h5.29a.739.739,0,1,1,0,1.479Z" transform="translate(-73.391 -170.71)"/>
      </g>
      <g id="Grupo_1046326" data-name="Grupo 1046326" transform="translate(1234.015 2852.074)">
        <path id="Trazado_773564" data-name="Trazado 773564" d="M175.3,184.277h-2.119a.739.739,0,1,1,0-1.479H175.3a.739.739,0,0,1,0,1.479Z" transform="translate(-172.444 -182.798)"/>
      </g>
      <g id="Grupo_1046327" data-name="Grupo 1046327" transform="translate(1222.139 2852.074)">
        <path id="Trazado_773565" data-name="Trazado 773565" d="M141.378,184.277h-8.353a.739.739,0,1,1,0-1.479h8.353a.739.739,0,0,1,0,1.479Z" transform="translate(-132.286 -182.798)"/>
      </g>
      <g id="Grupo_1046328" data-name="Grupo 1046328" transform="translate(1216.554 2852.074)">
        <path id="Trazado_773566" data-name="Trazado 773566" d="M116.126,184.277h-1.988a.739.739,0,1,1,0-1.479h1.988a.739.739,0,1,1,0,1.479Z" transform="translate(-113.399 -182.798)"/>
      </g>
      <g id="Grupo_1046329" data-name="Grupo 1046329" transform="translate(1204.722 2852.074)">
        <path id="Trazado_773567" data-name="Trazado 773567" d="M82.238,184.277H74.13a.739.739,0,0,1,0-1.479h8.108a.739.739,0,0,1,0,1.479Z" transform="translate(-73.391 -182.798)"/>
      </g>
      <g id="Grupo_1046330" data-name="Grupo 1046330" transform="translate(1214.858 2858.52)">
        <path id="Trazado_773568" data-name="Trazado 773568" d="M159.284,196.366h-8.845a.739.739,0,1,1,0-1.479h8.845a.739.739,0,1,1,0,1.479Z" transform="translate(-149.7 -194.887)"/>
      </g>
      <g id="Grupo_1046331" data-name="Grupo 1046331" transform="translate(1211.22 2855.648)">
        <path id="Trazado_773569" data-name="Trazado 773569" d="M108.48,196.366H96.1a.739.739,0,0,1,0-1.479H108.48a.739.739,0,0,1,0,1.479Z" transform="translate(-95.362 -194.887)"/>
      </g>
      <g id="Grupo_1046332" data-name="Grupo 1046332" transform="translate(1204.722 2855.648)">
        <path id="Trazado_773570" data-name="Trazado 773570" d="M76.977,196.366H74.13a.739.739,0,0,1,0-1.479h2.846a.739.739,0,0,1,0,1.479Z" transform="translate(-73.391 -194.887)"/>
      </g>
      <g id="Grupo_1046336" data-name="Grupo 1046336" transform="translate(1204.722 2815.826)">
        <g id="Grupo_1046334" data-name="Grupo 1046334" transform="translate(0 0)">
          <path id="Trazado_773571" data-name="Trazado 773571" d="M74.13,65.55a.739.739,0,0,1,0-1.479,1.036,1.036,0,0,0,1.035-1.035v-.3a2.517,2.517,0,0,1,2.514-2.514.739.739,0,0,1,0,1.479,1.036,1.036,0,0,0-1.035,1.035v.3A2.517,2.517,0,0,1,74.13,65.55Z" transform="translate(-73.391 -60.227)"/>
        </g>
        <g id="Grupo_1046335" data-name="Grupo 1046335" transform="translate(0 3.844)">
          <path id="Trazado_773572" data-name="Trazado 773572" d="M77.679,78.55a2.516,2.516,0,0,1-2.514-2.514v-.3a1.036,1.036,0,0,0-1.035-1.035.739.739,0,0,1,0-1.479,2.517,2.517,0,0,1,2.514,2.514v.3a1.036,1.036,0,0,0,1.035,1.035.739.739,0,0,1,0,1.479Z" transform="translate(-73.391 -73.227)"/>
        </g>
      </g>
      <g id="Grupo_1046339" data-name="Grupo 1046339" transform="translate(1204.722 2859.298)">
        <g id="Grupo_1046337" data-name="Grupo 1046337" transform="translate(0 3.844)">
          <path id="Trazado_773573" data-name="Trazado 773573" d="M74.13,225.55a.739.739,0,0,1,0-1.479,1.036,1.036,0,0,0,1.035-1.035v-.3a2.517,2.517,0,0,1,2.514-2.514.739.739,0,1,1,0,1.479,1.036,1.036,0,0,0-1.035,1.035v.3A2.517,2.517,0,0,1,74.13,225.55Z" transform="translate(-73.391 -220.227)"/>
        </g>
        <g id="Grupo_1046338" data-name="Grupo 1046338" transform="translate(0 0)">
          <path id="Trazado_773574" data-name="Trazado 773574" d="M77.679,212.55a2.517,2.517,0,0,1-2.514-2.514v-.3a1.036,1.036,0,0,0-1.035-1.035.739.739,0,0,1,0-1.479,2.517,2.517,0,0,1,2.514,2.514v.3a1.036,1.036,0,0,0,1.035,1.035.739.739,0,1,1,0,1.479Z" transform="translate(-73.391 -207.227)"/>
        </g>
      </g>
    </g>
  </g>
</svg>
