<svg xmlns="http://www.w3.org/2000/svg" width="214" height="183" viewBox="0 0 214 183">
  <g id="Grupo_1070059" data-name="Grupo 1070059" transform="translate(-1397 -1224)">
    <rect id="Rectángulo_356316" data-name="Rectángulo 356316" width="214" height="183" rx="16" transform="translate(1397 1224)" fill="#ff6148"/>
    <g id="codigo-fuente_1_" data-name="codigo-fuente (1)" transform="translate(1407.636 1219.572)">
      <g id="Grupo_1046187" data-name="Grupo 1046187" transform="translate(26.364 27.428)">
        <path id="Trazado_773249" data-name="Trazado 773249" d="M150.618,31.587V17.207a5.758,5.758,0,0,0-5.777-5.777H16.787a5.758,5.758,0,0,0-5.777,5.777v14.38Z" transform="translate(-11.01 -11.43)" fill="#dededf"/>
        <path id="Trazado_773250" data-name="Trazado 773250" d="M11.01,17.79V128.766a5.778,5.778,0,0,0,5.777,5.777H144.809a5.8,5.8,0,0,0,5.777-5.777V17.79Z" transform="translate(-11.01 2.399)" fill="#f1f3f7"/>
        <path id="Trazado_773251" data-name="Trazado 773251" d="M15.01,21.79H129.192v91.358H15.01Z" transform="translate(-2.313 11.096)" fill="#fcfcfd"/>
        <path id="Trazado_773252" data-name="Trazado 773252" d="M17.01,23.27H118.494V48.22H17.01Z" transform="translate(2.036 14.314)" fill="#f5ea0a"/>
        <g id="Grupo_1046183" data-name="Grupo 1046183" transform="translate(101.865 7.047)">
          <circle id="Elipse_6135" data-name="Elipse 6135" cx="3.047" cy="3.047" r="3.047" fill="#6eb1e1"/>
          <circle id="Elipse_6136" data-name="Elipse 6136" cx="3.047" cy="3.047" r="3.047" transform="translate(9.46)" fill="#f0582f"/>
          <circle id="Elipse_6137" data-name="Elipse 6137" cx="3.047" cy="3.047" r="3.047" transform="translate(18.951)" fill="#fbd303"/>
        </g>
        <path id="Trazado_773253" data-name="Trazado 773253" d="M144.841,11.43H16.787a5.758,5.758,0,0,0-5.777,5.777V20.1a5.758,5.758,0,0,1,5.777-5.777H144.809a5.758,5.758,0,0,1,5.777,5.777V17.207A5.731,5.731,0,0,0,144.841,11.43Z" transform="translate(-11.01 -11.43)" fill="#fcfcfd" opacity="0.3"/>
        <g id="Grupo_1046185" data-name="Grupo 1046185" transform="translate(19.014 67.265)">
          <path id="Trazado_773254" data-name="Trazado 773254" d="M21.99,32.62h40.6v3.651H21.99Z" transform="translate(-6.15 -32.62)" fill="#646b79"/>
          <path id="Trazado_773255" data-name="Trazado 773255" d="M44.31,32.62H59.2v3.651H44.31Z" transform="translate(42.382 -32.62)" fill="#6eb1e1"/>
          <g id="Grupo_1046184" data-name="Grupo 1046184">
            <path id="Trazado_773256" data-name="Trazado 773256" d="M37.05,32.62H55.112v3.651H37.05Z" transform="translate(26.596 -32.62)" fill="#646b79"/>
            <path id="Trazado_773257" data-name="Trazado 773257" d="M17,35.2H40.332v3.651H17Z" transform="translate(-17 -27.01)" fill="#646b79"/>
            <path id="Trazado_773258" data-name="Trazado 773258" d="M23.71,40.37H56.977v3.651H23.71Z" transform="translate(-2.41 -15.769)" fill="#646b79"/>
            <path id="Trazado_773259" data-name="Trazado 773259" d="M43.6,40.37H60.742v3.651H43.6Z" transform="translate(40.838 -15.769)" fill="#646b79"/>
            <path id="Trazado_773260" data-name="Trazado 773260" d="M36.19,40.37H53.332v3.651H36.19Z" transform="translate(24.726 -15.769)" fill="#646b79"/>
          </g>
          <path id="Trazado_773261" data-name="Trazado 773261" d="M17,37.78H27.221v3.651H17Z" transform="translate(-17 -21.4)" fill="#f0582f"/>
          <path id="Trazado_773262" data-name="Trazado 773262" d="M45.36,37.78H56.946v3.651H45.36Z" transform="translate(44.665 -21.4)" fill="#f0582f"/>
          <path id="Trazado_773263" data-name="Trazado 773263" d="M21.99,42.95h48V46.6h-48Z" transform="translate(-6.15 -10.159)" fill="#f0582f"/>
          <path id="Trazado_773264" data-name="Trazado 773264" d="M26.03,35.2h23.4v3.651H26.03Z" transform="translate(2.634 -27.01)" fill="#6eb1e1"/>
          <path id="Trazado_773265" data-name="Trazado 773265" d="M41.63,35.2h23.4v3.651H41.63Z" transform="translate(36.555 -27.01)" fill="#6eb1e1"/>
          <path id="Trazado_773266" data-name="Trazado 773266" d="M35.14,35.2H50.25v3.651H35.14Z" transform="translate(22.443 -27.01)" fill="#6eb1e1"/>
          <path id="Trazado_773267" data-name="Trazado 773267" d="M17,40.37H32.65v3.651H17Z" transform="translate(-17 -15.769)" fill="#6eb1e1"/>
          <path id="Trazado_773268" data-name="Trazado 773268" d="M17,45.53H51.7v3.651H17Z" transform="translate(-17 -4.549)" fill="#6eb1e1"/>
          <path id="Trazado_773269" data-name="Trazado 773269" d="M17,48.03H118.611v3.365H17Z" transform="translate(-17 0.887)" fill="#dededf"/>
          <path id="Trazado_773270" data-name="Trazado 773270" d="M17,32.62H28.65v3.651H17Z" transform="translate(-17 -32.62)" fill="#dededf"/>
          <path id="Trazado_773271" data-name="Trazado 773271" d="M21.99,37.78H90.969v3.651H21.99Z" transform="translate(-6.15 -21.4)" fill="#dededf"/>
          <path id="Trazado_773272" data-name="Trazado 773272" d="M17,42.95H27.221V46.6H17Z" transform="translate(-17 -10.159)" fill="#dededf"/>
          <path id="Trazado_773273" data-name="Trazado 773273" d="M45.16,42.95H57.381V46.6H45.16Z" transform="translate(44.23 -10.159)" fill="#f0582f"/>
          <path id="Trazado_773274" data-name="Trazado 773274" d="M39.51,42.95H51.731V46.6H39.51Z" transform="translate(31.945 -10.159)" fill="#dededf"/>
          <path id="Trazado_773275" data-name="Trazado 773275" d="M29.71,45.53H43.423v3.651H29.71Z" transform="translate(10.636 -4.549)" fill="#dededf"/>
          <path id="Trazado_773276" data-name="Trazado 773276" d="M40.56,45.53H67.383v3.651H40.56Z" transform="translate(34.228 -4.549)" fill="#6eb1e1"/>
          <path id="Trazado_773277" data-name="Trazado 773277" d="M0,0H8.729V3.651H0Z" transform="translate(69.122 44.635) rotate(180)" fill="#dededf"/>
        </g>
        <g id="Grupo_1046186" data-name="Grupo 1046186" transform="translate(40.156 41.87)">
          <path id="Trazado_773278" data-name="Trazado 773278" d="M32.485,26.937a8.617,8.617,0,0,1,2.889.476l.571-2.222a10.848,10.848,0,0,0-3.619-.571c-5.174,0-8.666,3.4-8.666,8.444,0,4.889,3.174,7.9,8.317,7.9a11.712,11.712,0,0,0,3.809-.54l-.413-2.159a10.3,10.3,0,0,1-2.825.413c-3.524,0-5.714-2.222-5.714-5.809-.063-3.682,2.127-5.936,5.65-5.936Z" transform="translate(-23.66 -24.62)" fill="#646b79"/>
          <path id="Trazado_773279" data-name="Trazado 773279" d="M35.722,24.62c-4.539,0-7.682,3.428-7.682,8.317,0,4.825,2.984,8.063,7.428,8.063,4.73,0,7.777-3.27,7.777-8.349C43.213,28.651,40.9,24.62,35.722,24.62Zm-.063,14.189c-2.666,0-4.444-2.381-4.444-5.936,0-3.619,1.778-6.031,4.412-6.031,2.6,0,4.412,2.444,4.412,5.936C40.039,36.4,38.293,38.809,35.658,38.809Z" transform="translate(-14.136 -24.62)" fill="#646b79"/>
          <path id="Trazado_773280" data-name="Trazado 773280" d="M45.1,26.362c-1.555-1.175-3.587-1.682-6.571-1.682a33.413,33.413,0,0,0-4.666.286V40.584a35.5,35.5,0,0,0,3.873.19c3.238,0,5.809-.7,7.4-2.063A7.949,7.949,0,0,0,47.764,32.3,7.065,7.065,0,0,0,45.1,26.362Zm-2.19,10.729a5.938,5.938,0,0,1-4.317,1.555h-.1a5.865,5.865,0,0,1-1.365-.1l-.317-.063V26.966l.317-.063a8.811,8.811,0,0,1,1.778-.159,5.7,5.7,0,0,1,4.158,1.492,5.583,5.583,0,0,1,1.46,4.19,6.367,6.367,0,0,1-1.619,4.666Z" transform="translate(-1.482 -24.49)" fill="#646b79"/>
          <path id="Trazado_773281" data-name="Trazado 773281" d="M42.244,38.233V33.5h6.095V31.249H42.244V27H48.72V24.71H39.26V40.518h9.809V38.233Z" transform="translate(10.26 -24.424)" fill="#646b79"/>
        </g>
      </g>
    </g>
  </g>
</svg>
