<svg xmlns="http://www.w3.org/2000/svg" xmlns:xlink="http://www.w3.org/1999/xlink" width="190" height="115.307" viewBox="0 0 190 115.307">
  <defs>
    <clipPath id="clip-path">
      <path id="path3529" d="M0-682.665H105.307v105.307H0Z" transform="translate(0 682.665)"/>
    </clipPath>
  </defs>
  <g id="Grupo_1070058" data-name="Grupo 1070058" transform="translate(-180 -4540)">
    <rect id="Rectángulo_356043" data-name="Rectángulo 356043" width="190" height="115" rx="11" transform="translate(180 4540)" fill="#ff6148"/>
    <g id="g3519" transform="translate(222 5232.665)">
      <g id="g3521" transform="translate(37.879 -604.634)">
        <path id="path3523" d="M-152.189,0h-25.968l-1.791,12.019H-150.4Z" transform="translate(179.948)" fill="#495560"/>
      </g>
      <g id="g3525" transform="translate(0 -682.665)">
        <g id="g3527" clip-path="url(#clip-path)">
          <g id="g3533" transform="translate(30.49 90.051)">
            <path id="path3535" d="M-229-44.505H-268.2a2.557,2.557,0,0,1-2.453-3.28L-270.3-49a5.054,5.054,0,0,1,4.848-3.627h33.706A5.054,5.054,0,0,1-226.9-49l.357,1.211A2.557,2.557,0,0,1-229-44.505" transform="translate(270.763 52.623)" fill="#c7c7c7"/>
          </g>
          <g id="g3537" transform="translate(30.49 90.051)">
            <path id="path3539" d="M-102.583,0h-13.4a5.054,5.054,0,0,0-4.848,3.627l-.356,1.211a2.557,2.557,0,0,0,2.453,3.28h18.159A9.34,9.34,0,0,1-102.583,0" transform="translate(121.293)" fill="#98a5b3"/>
          </g>
          <g id="g3541" transform="translate(1.543 7.139)">
            <path id="path3543" d="M-493.6-388.675h-77.837a12.192,12.192,0,0,1-12.192-12.192v-46.508a12.192,12.192,0,0,1,12.192-12.192H-493.6a12.192,12.192,0,0,1,12.192,12.192v46.508A12.192,12.192,0,0,1-493.6-388.675" transform="translate(583.628 459.567)" fill="#495560"/>
          </g>
          <g id="g3545" transform="translate(1.543 7.139)">
            <path id="path3547" d="M-181.006,0h-20.822a12.192,12.192,0,0,0-12.192,12.192V58.7a12.192,12.192,0,0,0,12.192,12.192h30.03C-183.388,58.764-188.488,24.719-181.006,0" transform="translate(214.021)" fill="#333941"/>
          </g>
          <g id="g3549" transform="translate(9.882 15.478)">
            <path id="path3551" d="M0-267.68v-43.433A5.39,5.39,0,0,1,5.391-316.5H80.153a5.39,5.39,0,0,1,5.391,5.391v43.433a5.39,5.39,0,0,1-5.391,5.391H5.391A5.39,5.39,0,0,1,0-267.68" transform="translate(0 316.503)" fill="#faef81"/>
          </g>
          <g id="g3553" transform="translate(9.882 15.478)">
            <path id="path3555" d="M-155.537-297.234c-6.5-13.51-9.137-35.374-5.693-54.214h-17.286a5.391,5.391,0,0,0-5.391,5.391v43.433a5.391,5.391,0,0,0,5.391,5.391Z" transform="translate(183.906 351.448)" fill="#fad271"/>
          </g>
          <g id="g3557" transform="translate(52.654 15.478)">
            <path id="path3559" d="M-204.947,0h-37.381V54.214h37.381a5.391,5.391,0,0,0,5.391-5.391V5.391A5.391,5.391,0,0,0-204.947,0" transform="translate(242.329)" fill="#333941"/>
          </g>
          <g id="g3561" transform="translate(1.543 62.427)">
            <path id="path3563" d="M0,0V3.412A12.192,12.192,0,0,0,12.192,15.6H90.03A12.192,12.192,0,0,0,102.222,3.412V0Z" fill="#c7c7c7"/>
          </g>
          <g id="g3565" transform="translate(1.543 62.427)">
            <path id="path3567" d="M0,0V3.412A12.192,12.192,0,0,0,12.192,15.6h30.03C38.811,12.035,35.964,6.57,33.832,0Z" fill="#98a5b3"/>
          </g>
          <g id="g3569" transform="translate(48.196 65.772)">
            <path id="path3571" d="M-48.879-24.44a4.458,4.458,0,0,1-4.458,4.458,4.458,4.458,0,0,1-4.458-4.458A4.458,4.458,0,0,1-53.337-28.9a4.458,4.458,0,0,1,4.458,4.458" transform="translate(57.795 28.897)" fill="#fff"/>
          </g>
          <g id="g3573" transform="translate(78.451 43.071)">
            <path id="path3575" d="M-2.326-6.915H-8.457A1.543,1.543,0,0,1-10-8.457,1.543,1.543,0,0,1-8.457-10h6.131A1.543,1.543,0,0,1-.783-8.457,1.543,1.543,0,0,1-2.326-6.915Z" transform="translate(10 10)" fill="#fff"/>
          </g>
          <g id="g3577" transform="translate(60.411 43.071)">
            <path id="path3579" d="M4.05-6.915H-8.457A1.543,1.543,0,0,1-10-8.457,1.543,1.543,0,0,1-8.457-10H4.05A1.543,1.543,0,0,1,5.592-8.457,1.543,1.543,0,0,1,4.05-6.915Z" transform="translate(10 10)" fill="#84dfff"/>
          </g>
          <g id="g3581" transform="translate(71.524 48.681)">
            <path id="path3583" d="M-.829-6.915H-8.457A1.543,1.543,0,0,1-10-8.457,1.543,1.543,0,0,1-8.457-10H-.829A1.543,1.543,0,0,1,.714-8.457,1.543,1.543,0,0,1-.829-6.915Z" transform="translate(10 10)" fill="#84dfff"/>
          </g>
          <g id="g3585" transform="translate(60.411 48.681)">
            <path id="path3587" d="M-2.877-6.915h-5.58A1.543,1.543,0,0,1-10-8.457,1.543,1.543,0,0,1-8.457-10h5.58A1.543,1.543,0,0,1-1.335-8.457,1.543,1.543,0,0,1-2.877-6.915Z" transform="translate(10 10)" fill="#fff"/>
          </g>
          <g id="g3589" transform="translate(71.136 37.461)">
            <path id="path3591" d="M2.861-6.915H-8.457A1.543,1.543,0,0,1-10-8.457,1.543,1.543,0,0,1-8.457-10H2.861A1.543,1.543,0,0,1,4.4-8.457,1.543,1.543,0,0,1,2.861-6.915Z" transform="translate(10 10)" fill="#55d57b"/>
          </g>
          <g id="g3593" transform="translate(60.411 37.461)">
            <path id="path3595" d="M-3.266-6.915H-8.457A1.543,1.543,0,0,1-10-8.457,1.543,1.543,0,0,1-8.457-10h5.192A1.543,1.543,0,0,1-1.723-8.457,1.543,1.543,0,0,1-3.266-6.915Z" transform="translate(10 10)" fill="#ff8aa0"/>
          </g>
          <g id="g3597" transform="translate(78.108 31.851)">
            <path id="path3599" d="M-1.982-6.915H-8.457A1.543,1.543,0,0,1-10-8.457,1.543,1.543,0,0,1-8.457-10h6.475A1.543,1.543,0,0,1-.44-8.457,1.543,1.543,0,0,1-1.982-6.915Z" transform="translate(10 10)" fill="#ff8aa0"/>
          </g>
          <g id="g3601" transform="translate(60.411 31.851)">
            <path id="path3603" d="M3.706-6.915H-8.457A1.543,1.543,0,0,1-10-8.457,1.543,1.543,0,0,1-8.457-10H3.706A1.543,1.543,0,0,1,5.249-8.457,1.543,1.543,0,0,1,3.706-6.915Z" transform="translate(10 10)" fill="#fff"/>
          </g>
          <g id="g3605" transform="translate(71.524 26.241)">
            <path id="path3607" d="M-1.563-6.915H-8.457A1.543,1.543,0,0,1-10-8.457,1.543,1.543,0,0,1-8.457-10h6.895A1.543,1.543,0,0,1-.02-8.457,1.543,1.543,0,0,1-1.563-6.915Z" transform="translate(10 10)" fill="#55d57b"/>
          </g>
          <g id="g3609" transform="translate(60.411 26.241)">
            <path id="path3611" d="M-2.877-6.915h-5.58A1.543,1.543,0,0,1-10-8.457,1.543,1.543,0,0,1-8.457-10h5.58A1.543,1.543,0,0,1-1.335-8.457,1.543,1.543,0,0,1-2.877-6.915Z" transform="translate(10 10)" fill="#84dfff"/>
          </g>
          <g id="g3613" transform="translate(8.339 13.936)">
            <path id="path3615" d="M77.086-264.319a1.543,1.543,0,0,1-1.543-1.543v-41.559a3.852,3.852,0,0,0-3.848-3.848H-3.067a3.852,3.852,0,0,0-3.848,3.848v41.559a1.543,1.543,0,0,1-1.543,1.543A1.543,1.543,0,0,1-10-265.862v-41.559a6.941,6.941,0,0,1,6.933-6.933H71.7a6.941,6.941,0,0,1,6.933,6.933v41.559A1.543,1.543,0,0,1,77.086-264.319Z" transform="translate(10 314.354)"/>
          </g>
          <g id="g3617" transform="translate(0 5.596)">
            <path id="path3619" d="M-445.194,62.937a1.537,1.537,0,0,1-.624-.133,13.752,13.752,0,0,1-8.172-12.561V3.735A13.75,13.75,0,0,1-440.256-10h56.3a1.543,1.543,0,0,1,1.543,1.543,1.543,1.543,0,0,1-1.543,1.543h-56.3a10.662,10.662,0,0,0-10.65,10.65V50.243a10.664,10.664,0,0,0,6.338,9.741,1.543,1.543,0,0,1,.785,2.035A1.543,1.543,0,0,1-445.194,62.937Z" transform="translate(453.991 10)"/>
          </g>
          <g id="g3621" transform="translate(14.45 5.596)">
            <path id="path3623" d="M67.122-395.589H-8.457A1.543,1.543,0,0,1-10-397.132a1.543,1.543,0,0,1,1.543-1.543H67.122a10.662,10.662,0,0,0,10.65-10.65v-46.508a10.662,10.662,0,0,0-10.65-10.65H53.343a1.543,1.543,0,0,1-1.543-1.543,1.543,1.543,0,0,1,1.543-1.543H67.122a13.75,13.75,0,0,1,13.735,13.735v46.508A13.75,13.75,0,0,1,67.122-395.589Z" transform="translate(10 469.567)"/>
          </g>
          <g id="g3625" transform="translate(0 60.885)">
            <path id="path3627" d="M93.764-6.915H-8.457A1.543,1.543,0,0,1-10-8.457,1.543,1.543,0,0,1-8.457-10H93.764a1.543,1.543,0,0,1,1.543,1.543A1.543,1.543,0,0,1,93.764-6.915Z" transform="translate(10 10)"/>
          </g>
          <g id="g3629" transform="translate(36.336 76.488)">
            <path id="path3631" d="M-8.457-72.813a1.555,1.555,0,0,1-.229-.017,1.543,1.543,0,0,1-1.3-1.753L-8.193-86.6A1.543,1.543,0,0,1-6.44-87.9a1.543,1.543,0,0,1,1.3,1.753L-6.933-74.129A1.543,1.543,0,0,1-8.457-72.813Z" transform="translate(10.001 87.918)"/>
          </g>
          <g id="g3633" transform="translate(64.095 76.488)">
            <path id="path3635" d="M-6.67,5.1A1.543,1.543,0,0,1-8.193,3.788L-9.984-8.231a1.543,1.543,0,0,1,1.3-1.753,1.543,1.543,0,0,1,1.753,1.3L-5.142,3.334a1.543,1.543,0,0,1-1.3,1.753A1.555,1.555,0,0,1-6.67,5.1Z" transform="translate(10.001 10.001)"/>
          </g>
          <g id="g3637" transform="translate(28.946 88.508)">
            <path id="path3639" d="M16.713-51.42H-22.5a4.065,4.065,0,0,1-3.283-1.644,4.065,4.065,0,0,1-.65-3.614l.357-1.211a6.633,6.633,0,0,1,6.328-4.734H13.962a6.633,6.633,0,0,1,6.328,4.734l.357,1.211A4.065,4.065,0,0,1,20-53.064,4.065,4.065,0,0,1,16.713-51.42Zm-36.457-8.117a3.531,3.531,0,0,0-3.368,2.52l-.357,1.211a1.006,1.006,0,0,0,.161.894,1,1,0,0,0,.813.407H16.713a1,1,0,0,0,.813-.407,1.006,1.006,0,0,0,.161-.894l-.357-1.211a3.531,3.531,0,0,0-3.368-2.52Z" transform="translate(26.598 62.623)"/>
          </g>
          <g id="g3641" transform="translate(16.595 30.979)">
            <path id="path3643" d="M-43.3,5.8a1.537,1.537,0,0,1-1.091-.452l-6.356-6.356a1.543,1.543,0,0,1,0-2.182l6.356-6.356a1.543,1.543,0,0,1,2.182,0,1.543,1.543,0,0,1,0,2.182L-47.478-2.1l5.265,5.265a1.543,1.543,0,0,1,0,2.182A1.538,1.538,0,0,1-43.3,5.8Z" transform="translate(51.203 10)"/>
          </g>
          <g id="g3645" transform="translate(36.499 30.979)">
            <path id="path3647" d="M-8.457,5.8a1.538,1.538,0,0,1-1.091-.452,1.543,1.543,0,0,1,0-2.182L-4.283-2.1-9.548-7.367a1.543,1.543,0,0,1,0-2.182,1.543,1.543,0,0,1,2.182,0l6.356,6.356a1.543,1.543,0,0,1,0,2.182L-7.367,5.345A1.538,1.538,0,0,1-8.457,5.8Z" transform="translate(10 10)"/>
          </g>
          <g id="g3649" transform="translate(26.155 27.527)">
            <path id="path3651" d="M-8.46-114.461a1.539,1.539,0,0,1-.527-.093,1.543,1.543,0,0,1-.922-1.977l7.139-19.616a1.543,1.543,0,0,1,1.977-.922,1.543,1.543,0,0,1,.922,1.977L-7.01-115.476A1.543,1.543,0,0,1-8.46-114.461Z" transform="translate(10.003 137.162)"/>
          </g>
        </g>
      </g>
    </g>
  </g>
</svg>
