<svg xmlns="http://www.w3.org/2000/svg" width="214" height="183" viewBox="0 0 214 183">
  <g id="Grupo_1070061" data-name="Grupo 1070061" transform="translate(118 10967)">
    <rect id="Rectángulo_356320" data-name="Rectángulo 356320" width="214" height="183" rx="16" transform="translate(-118 -10967)" fill="#ff6148"/>
    <g id="codigo-" transform="translate(-75.383 -10942.872)">
      <path id="Trazado_773282" data-name="Trazado 773282" d="M113.138,8.821V125.927a8.822,8.822,0,0,1-8.822,8.819H17.655a8.819,8.819,0,0,1-8.819-8.819V8.821A8.817,8.817,0,0,1,17.655,0h86.662A8.82,8.82,0,0,1,113.138,8.821Z" transform="translate(0 -0.001)" fill="#424c59"/>
      <path id="Trazado_773283" data-name="Trazado 773283" d="M113.14,8.819V22.666H8.838V8.819A8.817,8.817,0,0,1,17.657,0h86.661A8.82,8.82,0,0,1,113.14,8.819Z" transform="translate(-0.001)" fill="#eaeaea"/>
      <circle id="Elipse_6138" data-name="Elipse 6138" cx="4.542" cy="4.542" r="4.542" transform="translate(18.343 6.569)" fill="#f9572b"/>
      <circle id="Elipse_6139" data-name="Elipse 6139" cx="4.542" cy="4.542" r="4.542" transform="translate(33.637 6.569)" fill="#fcc63d"/>
      <g id="Grupo_1046189" data-name="Grupo 1046189" transform="translate(48.928 6.569)">
        <circle id="Elipse_6140" data-name="Elipse 6140" cx="4.542" cy="4.542" r="4.542" fill="#45b8c4"/>
        <circle id="Elipse_6141" data-name="Elipse 6141" cx="26.14" cy="26.14" r="26.14" transform="translate(37.721 9.016)" fill="#45b8c4"/>
      </g>
      <path id="Trazado_773284" data-name="Trazado 773284" d="M131.813,143.969H86a2.064,2.064,0,1,1,0-4.128h45.813a2.064,2.064,0,0,1,0,4.128Z" transform="translate(-55.336 -103.039)" fill="#fcc63d"/>
      <path id="Trazado_773285" data-name="Trazado 773285" d="M51.027,144.011a2.063,2.063,0,1,1,2.023-1.659A2.078,2.078,0,0,1,51.027,144.011Z" transform="translate(-29.579 -103.082)" fill="#fff"/>
      <path id="Trazado_773286" data-name="Trazado 773286" d="M131.813,231.591H86a2.064,2.064,0,1,1,0-4.128h45.813a2.064,2.064,0,0,1,0,4.128Z" transform="translate(-55.336 -167.601)" fill="#fcc63d"/>
      <g id="Grupo_1046190" data-name="Grupo 1046190" transform="translate(19.385 59.877)">
        <path id="Trazado_773287" data-name="Trazado 773287" d="M50.984,231.631a2.065,2.065,0,1,1,2.054-1.862A2.085,2.085,0,0,1,50.984,231.631Z" transform="translate(-48.921 -227.518)" fill="#fff"/>
        <path id="Trazado_773288" data-name="Trazado 773288" d="M294.446,275.4H281.515a2.064,2.064,0,1,1,0-4.128h12.931a2.064,2.064,0,0,1,0,4.128Z" transform="translate(-218.782 -259.759)" fill="#fff"/>
      </g>
      <path id="Trazado_773289" data-name="Trazado 773289" d="M187.969,275.4H163.894a2.064,2.064,0,1,1,0-4.128h24.075a2.064,2.064,0,1,1,0,4.128Z" transform="translate(-112.73 -199.882)" fill="#f9572b"/>
      <g id="Grupo_1046191" data-name="Grupo 1046191" transform="translate(19.402 71.392)">
        <path id="Trazado_773290" data-name="Trazado 773290" d="M99.62,275.4H86a2.064,2.064,0,1,1,0-4.128H99.62a2.064,2.064,0,1,1,0,4.128Z" transform="translate(-74.738 -271.274)" fill="#fff"/>
        <path id="Trazado_773291" data-name="Trazado 773291" d="M51.031,275.445a2.064,2.064,0,1,1,2.047-1.808A2.079,2.079,0,0,1,51.031,275.445Z" transform="translate(-48.985 -271.317)" fill="#fff"/>
      </g>
      <path id="Trazado_773292" data-name="Trazado 773292" d="M119.431,319.213H86a2.064,2.064,0,1,1,0-4.128H119.43a2.064,2.064,0,0,1,0,4.128Z" transform="translate(-55.336 -232.163)" fill="#fcc63d"/>
      <path id="Trazado_773293" data-name="Trazado 773293" d="M50.988,319.245a2.063,2.063,0,1,1,2.009-1.6A2.084,2.084,0,0,1,50.988,319.245Z" transform="translate(-29.54 -232.196)" fill="#fff"/>
      <path id="Trazado_773294" data-name="Trazado 773294" d="M273.727,363.024H267.4a2.064,2.064,0,1,1,0-4.128h6.328a2.064,2.064,0,0,1,0,4.128Z" transform="translate(-188.995 -264.444)" fill="#f9572b"/>
      <path id="Trazado_773295" data-name="Trazado 773295" d="M190.032,363.024h-18.3a2.064,2.064,0,0,1,0-4.128h18.3a2.064,2.064,0,0,1,0,4.128Z" transform="translate(-118.508 -264.444)" fill="#fcc63d"/>
      <g id="Grupo_1046192" data-name="Grupo 1046192" transform="translate(19.401 94.452)">
        <path id="Trazado_773296" data-name="Trazado 773296" d="M101.683,363.024H86a2.064,2.064,0,0,1,0-4.128h15.684a2.064,2.064,0,0,1,0,4.128Z" transform="translate(-74.737 -358.896)" fill="#fff"/>
        <path id="Trazado_773297" data-name="Trazado 773297" d="M51.029,363.063a2.064,2.064,0,1,1,2.047-1.807A2.079,2.079,0,0,1,51.029,363.063Z" transform="translate(-48.982 -358.937)" fill="#fff"/>
        <path id="Trazado_773298" data-name="Trazado 773298" d="M245.086,406.834H215.646a2.064,2.064,0,1,1,0-4.128h29.441a2.064,2.064,0,0,1,0,4.128Z" transform="translate(-170.264 -391.176)" fill="#fff"/>
      </g>
      <path id="Trazado_773299" data-name="Trazado 773299" d="M113.24,406.834H86a2.064,2.064,0,0,1,0-4.128h27.24a2.064,2.064,0,0,1,0,4.128Z" transform="translate(-55.336 -296.725)" fill="#f9572b"/>
      <path id="Trazado_773300" data-name="Trazado 773300" d="M51.032,406.876a2.064,2.064,0,1,1,2.053-1.863A2.082,2.082,0,0,1,51.032,406.876Z" transform="translate(-29.584 -296.766)" fill="#fff"/>
      <path id="Trazado_773301" data-name="Trazado 773301" d="M99.62,450.645H86a2.064,2.064,0,1,1,0-4.128H99.62a2.064,2.064,0,1,1,0,4.128Z" transform="translate(-55.336 -329.006)" fill="#f9572b"/>
      <path id="Trazado_773302" data-name="Trazado 773302" d="M50.987,450.683a2.064,2.064,0,1,1,2.023-1.662A2.084,2.084,0,0,1,50.987,450.683Z" transform="translate(-29.539 -329.043)" fill="#fff"/>
      <path id="Trazado_773303" data-name="Trazado 773303" d="M96.318,187.78H86a2.064,2.064,0,1,1,0-4.128H96.318a2.064,2.064,0,0,1,0,4.128Z" transform="translate(-55.336 -135.32)" fill="#f9572b"/>
      <g id="Grupo_1046193" data-name="Grupo 1046193" transform="translate(19.387 27.899)">
        <path id="Trazado_773304" data-name="Trazado 773304" d="M173.247,187.78H153.437a2.064,2.064,0,0,1,0-4.128h19.811a2.064,2.064,0,0,1,0,4.128Z" transform="translate(-124.412 -163.219)" fill="#fff"/>
        <path id="Trazado_773305" data-name="Trazado 773305" d="M50.988,187.817a2.064,2.064,0,1,1,2.022-1.662A2.083,2.083,0,0,1,50.988,187.817Z" transform="translate(-48.926 -163.255)" fill="#fff"/>
        <path id="Trazado_773306" data-name="Trazado 773306" d="M365.622,133.663a2.062,2.062,0,0,1-1.488-.635l-9.905-10.318a2.064,2.064,0,1,1,2.977-2.858l7.923,8.254,11.049-20.993a2.064,2.064,0,0,1,3.653,1.922l-12.382,23.525a2.063,2.063,0,0,1-1.538,1.082A2.183,2.183,0,0,1,365.622,133.663Z" transform="translate(-273.457 -106.011)" fill="#fff"/>
      </g>
    </g>
  </g>
</svg>
