<svg xmlns="http://www.w3.org/2000/svg" width="85" height="85" viewBox="0 0 85 85">
  <g id="Grupo_1070065" data-name="Grupo 1070065" transform="translate(-9 -3878)">
    <g id="codigo-binario" transform="translate(12.5 3886)">
      <path id="Trazado_773474" data-name="Trazado 773474" d="M72.45,44.475a33.488,33.488,0,0,1-26.1,32.659s-.612-1.427-1.366-1.427-1.366,1.923-1.366,1.923a33.769,33.769,0,0,1-4.417.319c-1.5.01-.612-2.242-1.366-2.242s-1.366,2.151-1.366,2.151a33.407,33.407,0,0,1-5.533-.879c-.494-.122-.8-.781-1.288-.925-.424-.125-1.027.267-1.445.126A33.483,33.483,0,1,1,52.912,14.03a32.8,32.8,0,0,1,3.877,2.333,34.077,34.077,0,0,1,3.244,2.089A33.41,33.41,0,0,1,72.45,44.475Z" transform="translate(0 -9.497)" fill="#012d4e"/>
      <path id="Trazado_773475" data-name="Trazado 773475" d="M78.849,167.378V179.74a1.366,1.366,0,1,1-2.733,0v-11H74.841a1.366,1.366,0,1,1,0-2.733h2.642A1.366,1.366,0,0,1,78.849,167.378Zm11.8,16.876H88a1.366,1.366,0,0,0,0,2.733h1.276v11a1.366,1.366,0,1,0,2.733,0V185.621A1.366,1.366,0,0,0,90.645,184.254Zm-25.642,0H62.36a1.366,1.366,0,1,0,0,2.733h1.276v11a1.366,1.366,0,1,0,2.733,0V185.621A1.366,1.366,0,0,0,65,184.254Zm12.48,18.079H74.841a1.366,1.366,0,1,0,0,2.733h1.276v4.946q1.342.456,2.733.8V203.7A1.366,1.366,0,0,0,77.483,202.334Zm37-36.322h-2.642a1.366,1.366,0,1,0,0,2.733h1.276v11a1.366,1.366,0,0,0,2.733,0V167.378A1.366,1.366,0,0,0,114.486,166.012Zm-11.249,0H100.6a1.366,1.366,0,1,0,0,2.733h1.276v11a1.366,1.366,0,0,0,2.733,0V167.378A1.366,1.366,0,0,0,103.238,166.012Z" transform="translate(-47.912 -143.329)" fill="#0ab59e"/>
      <path id="Trazado_773476" data-name="Trazado 773476" d="M75.084,63.52a4.947,4.947,0,0,1-4.941-4.941V52.862a4.941,4.941,0,1,1,9.882,0v5.717A4.947,4.947,0,0,1,75.084,63.52Zm0-12.866a2.211,2.211,0,0,0-2.208,2.209v5.717a2.208,2.208,0,1,0,4.417,0V52.862A2.211,2.211,0,0,0,75.084,50.654ZM49.441,63.52A4.947,4.947,0,0,1,44.5,58.579V52.862a4.941,4.941,0,1,1,9.882,0v5.717A4.947,4.947,0,0,1,49.441,63.52Zm0-12.866a2.211,2.211,0,0,0-2.208,2.209v5.717a2.208,2.208,0,0,0,4.417,0V52.862A2.211,2.211,0,0,0,49.441,50.654ZM75.084,84.243a4.947,4.947,0,0,0-4.941,4.941v4.668q1.24.092,2.5.092h.229V89.184a2.208,2.208,0,0,1,4.417,0v4.44q1.385-.192,2.733-.5V89.184A4.947,4.947,0,0,0,75.084,84.243ZM61.922,81.51a4.947,4.947,0,0,1-4.941-4.941V70.853a4.941,4.941,0,1,1,9.882,0v5.717A4.947,4.947,0,0,1,61.922,81.51Zm0-12.866a2.211,2.211,0,0,0-2.208,2.209v5.717a2.208,2.208,0,0,0,4.417,0V70.853A2.211,2.211,0,0,0,61.922,68.644Zm13.162-23.52a4.947,4.947,0,0,1-4.941-4.941V34.466a4.941,4.941,0,0,1,9.882,0v5.717A4.947,4.947,0,0,1,75.084,45.124Zm0-12.866a2.211,2.211,0,0,0-2.208,2.208v5.717a2.208,2.208,0,1,0,4.417,0V34.466A2.211,2.211,0,0,0,75.084,32.258Zm8.722,2.208v5.717a4.941,4.941,0,1,0,9.882,0V34.466c0-.011,0-.023,0-.034a33.481,33.481,0,0,0-7.1-4.408,4.947,4.947,0,0,0-2.778,4.442Zm7.149,0v5.717a2.208,2.208,0,1,1-4.417,0V34.466a2.208,2.208,0,0,1,4.417,0Z" transform="translate(-33.671 -25.491)" fill="#5affb7"/>
      <path id="Trazado_773477" data-name="Trazado 773477" d="M157.471,16.4a2.733,2.733,0,1,1-2.733-2.733A2.733,2.733,0,0,1,157.471,16.4Zm-2.733-5.465a2.049,2.049,0,1,0-2.05-2.049A2.05,2.05,0,0,0,154.739,10.931Zm0-6.832a2.049,2.049,0,1,0-2.05-2.049A2.05,2.05,0,0,0,154.739,4.1Zm26.825,42.356a2.733,2.733,0,1,1,2.733-2.733A2.733,2.733,0,0,1,181.564,46.455Zm-2.049,4.782a2.049,2.049,0,1,0,2.049-2.049A2.05,2.05,0,0,0,179.514,51.237Zm0,6.832a2.049,2.049,0,1,0,2.049-2.049A2.05,2.05,0,0,0,179.514,58.069Z" transform="translate(-126.488)" fill="#006e66"/>
      <path id="Trazado_773478" data-name="Trazado 773478" d="M167.182,16.4a2.726,2.726,0,0,1-.191,1.005,2.734,2.734,0,0,1-3.547-3.547,2.734,2.734,0,0,1,3.738,2.542ZM164.45,6.832a2.055,2.055,0,0,0-.461.052,2.051,2.051,0,0,0,2.458,2.458,2.051,2.051,0,0,0-2-2.51Zm1.537-4.269a2.055,2.055,0,0,0,.461-.052A2.051,2.051,0,0,0,163.989.052a2.051,2.051,0,0,0,2,2.51Zm28.021,41.16a2.726,2.726,0,0,0-.191-1.005,2.734,2.734,0,0,0-3.547,3.547,2.734,2.734,0,0,0,3.738-2.542Zm-.683,7.515a2.056,2.056,0,0,0-.052-.461,2.051,2.051,0,0,0-2.458,2.458,2.051,2.051,0,0,0,2.51-2Zm-2.562,8.368a2.055,2.055,0,0,0,.052.461,2.051,2.051,0,0,0,2.458-2.458,2.051,2.051,0,0,0-2.51,2Z" transform="translate(-136.2)" fill="#06995f"/>
    </g>
    <rect id="Rectángulo_357285" data-name="Rectángulo 357285" width="85" height="85" transform="translate(9 3878)" fill="none"/>
  </g>
</svg>
