<svg xmlns="http://www.w3.org/2000/svg" width="101" height="100" viewBox="0 0 101 100">
  <g id="Grupo_1070070" data-name="Grupo 1070070" transform="translate(-750 -2552)">
    <g id="Rectángulo_356239" data-name="Rectángulo 356239" transform="translate(750 2552)" fill="none" stroke="#ff6148" stroke-width="1">
      <rect width="101" height="100" rx="12" stroke="none"/>
      <rect x="0.5" y="0.5" width="100" height="99" rx="11.5" fill="none"/>
    </g>
    <g id="codigo-binario_1_" data-name="codigo-binario (1)" transform="translate(734.5 2567)">
      <path id="Trazado_773438" data-name="Trazado 773438" d="M89.484,75.449h-44.3A2.187,2.187,0,0,1,43,73.262V9.688A2.187,2.187,0,0,1,45.188,7.5h44.3a2.187,2.187,0,0,1,2.187,2.188V73.262A2.187,2.187,0,0,1,89.484,75.449Z" transform="translate(-6.475 -6.475)" fill="#eaf6ff"/>
      <path id="Trazado_773439" data-name="Trazado 773439" d="M357.1,7.5H353a2.187,2.187,0,0,1,2.188,2.188V73.262A2.187,2.187,0,0,1,353,75.449h4.1a2.187,2.187,0,0,0,2.188-2.187V9.688A2.187,2.187,0,0,0,357.1,7.5Z" transform="translate(-274.092 -6.475)" fill="#d8ecfe"/>
      <path id="Trazado_773440" data-name="Trazado 773440" d="M91.672,15.7H43V9.688A2.187,2.187,0,0,1,45.188,7.5h44.3a2.187,2.187,0,0,1,2.187,2.188Z" transform="translate(-6.475 -6.475)" fill="#2abcc8"/>
      <path id="Trazado_773441" data-name="Trazado 773441" d="M357.1,7.5H353a2.187,2.187,0,0,1,2.188,2.188V15.7h4.1V9.688A2.187,2.187,0,0,0,357.1,7.5Z" transform="translate(-274.092 -6.475)" fill="#0cacba"/>
      <path id="Trazado_773442" data-name="Trazado 773442" d="M82.384,11.875h0a2.051,2.051,0,0,1-2.051-2.051V7.5h4.1V9.824A2.051,2.051,0,0,1,82.384,11.875Z" transform="translate(-38.703 -6.475)" fill="#fe7ab6"/>
      <path id="Trazado_773443" data-name="Trazado 773443" d="M137.718,11.875h0a2.051,2.051,0,0,1-2.051-2.051V7.5h4.1V9.824A2.051,2.051,0,0,1,137.718,11.875Z" transform="translate(-86.472 -6.475)" fill="#fdb441"/>
      <path id="Trazado_773444" data-name="Trazado 773444" d="M193.051,11.875h0A2.051,2.051,0,0,1,191,9.824V7.5h4.1V9.824A2.051,2.051,0,0,1,193.051,11.875Z" transform="translate(-134.24 -6.475)" fill="#edf9d9"/>
      <path id="Trazado_773445" data-name="Trazado 773445" d="M264.8,240.047H237.188A2.187,2.187,0,0,1,235,237.859V206.688a2.187,2.187,0,0,1,2.188-2.187H264.8a2.187,2.187,0,0,1,2.188,2.188v31.172A2.187,2.187,0,0,1,264.8,240.047Z" transform="translate(-172.225 -176.541)" fill="#d8ecfe"/>
      <path id="Trazado_773446" data-name="Trazado 773446" d="M427.1,204.5H423a2.188,2.188,0,0,1,2.188,2.188v31.172A2.188,2.188,0,0,1,423,240.047h4.1a2.188,2.188,0,0,0,2.188-2.187V206.688A2.188,2.188,0,0,0,427.1,204.5Z" transform="translate(-334.521 -176.541)" fill="#c4e2ff"/>
      <path id="Trazado_773447" data-name="Trazado 773447" d="M265.634,393.824h0a2.324,2.324,0,0,1,2.324-2.324h18.594a2.324,2.324,0,0,1,2.324,2.324h0a2.324,2.324,0,0,1-2.324,2.324H267.958A2.324,2.324,0,0,1,265.634,393.824Z" transform="translate(-198.67 -337.975)" fill="#fdb441"/>
      <path id="Trazado_773448" data-name="Trazado 773448" d="M392.736,391.5h-4.1a2.324,2.324,0,0,1,2.324,2.324h0a2.324,2.324,0,0,1-2.324,2.324h4.1a2.324,2.324,0,0,0,2.324-2.324h0A2.324,2.324,0,0,0,392.736,391.5Z" transform="translate(-304.854 -337.975)" fill="#fe9738"/>
      <path id="Trazado_773449" data-name="Trazado 773449" d="M266.992,212.43H235v-5.742a2.187,2.187,0,0,1,2.188-2.187H264.8a2.187,2.187,0,0,1,2.188,2.188Z" transform="translate(-172.225 -176.541)" fill="#2abcc8"/>
      <path id="Trazado_773450" data-name="Trazado 773450" d="M427.1,204.5H423a2.188,2.188,0,0,1,2.188,2.188v5.742h4.1v-5.742A2.188,2.188,0,0,0,427.1,204.5Z" transform="translate(-334.521 -176.541)" fill="#0cacba"/>
      <path id="Trazado_773451" data-name="Trazado 773451" d="M97.45,279.908H85.222a.722.722,0,0,1-.722-.722v-21.8a.722.722,0,0,1,.722-.722H97.45a.722.722,0,0,1,.722.722v21.8A.722.722,0,0,1,97.45,279.908Z" transform="translate(-42.301 -221.575)" fill="#fe7ab6"/>
      <path id="Trazado_773452" data-name="Trazado 773452" d="M153.324,256.667h-4.1a.722.722,0,0,1,.722.722v21.8a.722.722,0,0,1-.722.722h4.1a.722.722,0,0,0,.722-.722v-21.8A.722.722,0,0,0,153.324,256.667Z" transform="translate(-98.174 -221.576)" fill="#fe5ca7"/>
      <g id="Grupo_1046240" data-name="Grupo 1046240" transform="translate(35.5 0)">
        <path id="Trazado_773453" data-name="Trazado 773453" d="M85.2,28.688a1.025,1.025,0,0,1-1.025-1.025V3.213A1.163,1.163,0,0,0,83.01,2.051h-44.3a1.163,1.163,0,0,0-1.162,1.162V16.3a1.025,1.025,0,0,1-2.051,0V3.213A3.217,3.217,0,0,1,38.713,0h44.3a3.217,3.217,0,0,1,3.213,3.213v24.45A1.025,1.025,0,0,1,85.2,28.688Z" transform="translate(-35.5 0)"/>
        <path id="Trazado_773454" data-name="Trazado 773454" d="M83.01,199.061h-44.3a3.217,3.217,0,0,1-3.213-3.213V150.525a1.025,1.025,0,0,1,2.051,0v45.322a1.163,1.163,0,0,0,1.162,1.162h44.3a1.163,1.163,0,0,0,1.162-1.162v-2.97a1.025,1.025,0,0,1,2.051,0v2.97A3.217,3.217,0,0,1,83.01,199.061Z" transform="translate(-35.5 -129.061)"/>
        <path id="Línea_1994" data-name="Línea 1994" d="M41.536-5.449H-6.475A1.025,1.025,0,0,1-7.5-6.475,1.025,1.025,0,0,1-6.475-7.5H41.536a1.025,1.025,0,0,1,1.025,1.025A1.025,1.025,0,0,1,41.536-5.449Z" transform="translate(7.91 15.703)"/>
        <path id="Trazado_773455" data-name="Trazado 773455" d="M75.909,6.426A3.08,3.08,0,0,1,72.833,3.35V1.025A1.025,1.025,0,0,1,73.858,0h4.1a1.025,1.025,0,0,1,1.025,1.025V3.35A3.08,3.08,0,0,1,75.909,6.426ZM74.884,2.051v1.3a1.025,1.025,0,0,0,2.051,0v-1.3Z" transform="translate(-67.729 0)"/>
        <path id="Trazado_773456" data-name="Trazado 773456" d="M131.243,6.426a3.08,3.08,0,0,1-3.076-3.076V1.025A1.025,1.025,0,0,1,129.192,0h4.1a1.025,1.025,0,0,1,1.025,1.025V3.35A3.08,3.08,0,0,1,131.243,6.426Zm-1.025-4.375v1.3a1.025,1.025,0,0,0,2.051,0v-1.3Z" transform="translate(-115.498 0)"/>
        <path id="Trazado_773457" data-name="Trazado 773457" d="M186.576,6.426A3.08,3.08,0,0,1,183.5,3.35V1.025A1.025,1.025,0,0,1,184.525,0h4.1a1.025,1.025,0,0,1,1.025,1.025V3.35A3.08,3.08,0,0,1,186.576,6.426Zm-1.025-4.375v1.3a1.025,1.025,0,0,0,2.051,0v-1.3Z" transform="translate(-163.266 0)"/>
        <g id="Grupo_1046237" data-name="Grupo 1046237" transform="translate(34.59 39.8)">
          <path id="Línea_1995" data-name="Línea 1995" d="M.156-5.449H-6.475A1.025,1.025,0,0,1-7.5-6.475,1.025,1.025,0,0,1-6.475-7.5H.156A1.025,1.025,0,0,1,1.182-6.475,1.025,1.025,0,0,1,.156-5.449Z" transform="translate(7.5 7.5)"/>
          <path id="Línea_1996" data-name="Línea 1996" d="M9.932-5.449H-6.475A1.025,1.025,0,0,1-7.5-6.475,1.025,1.025,0,0,1-6.475-7.5H9.932a1.025,1.025,0,0,1,1.025,1.025A1.025,1.025,0,0,1,9.932-5.449Z" transform="translate(7.5 11.085)"/>
          <path id="Línea_1997" data-name="Línea 1997" d="M7.676-5.449H-6.475A1.025,1.025,0,0,1-7.5-6.475,1.025,1.025,0,0,1-6.475-7.5H7.676A1.025,1.025,0,0,1,8.7-6.475,1.025,1.025,0,0,1,7.676-5.449Z" transform="translate(7.5 14.67)"/>
        </g>
        <path id="Trazado_773458" data-name="Trazado 773458" d="M258.33,234.6H244.84a1.025,1.025,0,0,1,0-2.051h13.49a1.163,1.163,0,0,0,1.162-1.162V200.213a1.163,1.163,0,0,0-1.162-1.162H230.713a1.163,1.163,0,0,0-1.162,1.162v31.172a1.163,1.163,0,0,0,1.162,1.162h9.251a1.025,1.025,0,0,1,0,2.051h-9.251a3.217,3.217,0,0,1-3.213-3.213V200.213A3.217,3.217,0,0,1,230.713,197H258.33a3.217,3.217,0,0,1,3.213,3.213v31.172A3.217,3.217,0,0,1,258.33,234.6Z" transform="translate(-201.25 -170.066)"/>
        <path id="Trazado_773459" data-name="Trazado 773459" d="M261.484,384h18.594a3.35,3.35,0,0,1,0,6.7H261.484a3.35,3.35,0,0,1,0-6.7Zm18.594,4.648a1.3,1.3,0,0,0,0-2.6H261.484a1.3,1.3,0,0,0,0,2.6Z" transform="translate(-227.696 -331.5)"/>
        <path id="Línea_1998" data-name="Línea 1998" d="M24.8-5.449H-6.475A1.025,1.025,0,0,1-7.5-6.475,1.025,1.025,0,0,1-6.475-7.5H24.8a1.025,1.025,0,0,1,1.025,1.025A1.025,1.025,0,0,1,24.8-5.449Z" transform="translate(34.221 42.363)"/>
        <path id="Trazado_773460" data-name="Trazado 773460" d="M90.976,274.459H78.747A1.749,1.749,0,0,1,77,272.712v-21.8a1.749,1.749,0,0,1,1.747-1.747H90.976a1.749,1.749,0,0,1,1.747,1.747v21.8A1.749,1.749,0,0,1,90.976,274.459Zm-11.925-2.051H90.672V251.217H79.051Z" transform="translate(-71.326 -215.1)"/>
        <g id="Grupo_1046238" data-name="Grupo 1046238" transform="translate(9.549 38.578)">
          <path id="Línea_1999" data-name="Línea 1999" d="M-3.1-5.449H-6.475A1.025,1.025,0,0,1-7.5-6.475,1.025,1.025,0,0,1-6.475-7.5H-3.1A1.025,1.025,0,0,1-2.077-6.475,1.025,1.025,0,0,1-3.1-5.449Z" transform="translate(7.5 7.5)"/>
          <path id="Línea_2000" data-name="Línea 2000" d="M-3.1-5.449H-6.475A1.025,1.025,0,0,1-7.5-6.475,1.025,1.025,0,0,1-6.475-7.5H-3.1A1.025,1.025,0,0,1-2.077-6.475,1.025,1.025,0,0,1-3.1-5.449Z" transform="translate(7.5 20.807)"/>
          <path id="Línea_2001" data-name="Línea 2001" d="M-.78-5.449H-6.475A1.025,1.025,0,0,1-7.5-6.475,1.025,1.025,0,0,1-6.475-7.5H-.78A1.025,1.025,0,0,1,.246-6.475,1.025,1.025,0,0,1-.78-5.449Z" transform="translate(7.5 10.827)"/>
          <path id="Línea_2002" data-name="Línea 2002" d="M-.78-5.449H-6.475A1.025,1.025,0,0,1-7.5-6.475,1.025,1.025,0,0,1-6.475-7.5H-.78A1.025,1.025,0,0,1,.246-6.475,1.025,1.025,0,0,1-.78-5.449Z" transform="translate(7.5 14.154)"/>
        </g>
        <g id="Grupo_1046239" data-name="Grupo 1046239" transform="translate(6.289 15.654)">
          <path id="Trazado_773461" data-name="Trazado 773461" d="M84.85,123.066a3.353,3.353,0,0,1-3.35-3.35V118.35a3.35,3.35,0,0,1,6.7,0v1.367A3.353,3.353,0,0,1,84.85,123.066Zm0-6.016a1.3,1.3,0,0,0-1.3,1.3v1.367a1.3,1.3,0,0,0,2.6,0V118.35A1.3,1.3,0,0,0,84.85,117.051Z" transform="translate(-81.5 -114.932)"/>
          <path id="Línea_2003" data-name="Línea 2003" d="M-6.475.566A1.025,1.025,0,0,1-7.5-.459V-6.475A1.025,1.025,0,0,1-6.475-7.5,1.025,1.025,0,0,1-5.449-6.475V-.459A1.025,1.025,0,0,1-6.475.566Z" transform="translate(16.523 7.5)"/>
          <path id="Trazado_773462" data-name="Trazado 773462" d="M182.85,123.066a3.353,3.353,0,0,1-3.35-3.35V118.35a3.35,3.35,0,0,1,6.7,0v1.367A3.353,3.353,0,0,1,182.85,123.066Zm0-6.016a1.3,1.3,0,0,0-1.3,1.3v1.367a1.3,1.3,0,0,0,2.6,0V118.35A1.3,1.3,0,0,0,182.85,117.051Z" transform="translate(-166.102 -114.932)"/>
          <path id="Línea_2004" data-name="Línea 2004" d="M-6.475.566A1.025,1.025,0,0,1-7.5-.459V-6.475A1.025,1.025,0,0,1-6.475-7.5,1.025,1.025,0,0,1-5.449-6.475V-.459A1.025,1.025,0,0,1-6.475.566Z" transform="translate(29.922 7.5)"/>
          <path id="Trazado_773463" data-name="Trazado 773463" d="M280.85,123.066a3.353,3.353,0,0,1-3.35-3.35V118.35a3.35,3.35,0,0,1,6.7,0v1.367A3.353,3.353,0,0,1,280.85,123.066Zm0-6.016a1.3,1.3,0,0,0-1.3,1.3v1.367a1.3,1.3,0,0,0,2.6,0V118.35A1.3,1.3,0,0,0,280.85,117.051Z" transform="translate(-250.703 -114.932)"/>
          <path id="Línea_2005" data-name="Línea 2005" d="M-6.475.566A1.025,1.025,0,0,1-7.5-.459V-6.475A1.025,1.025,0,0,1-6.475-7.5,1.025,1.025,0,0,1-5.449-6.475V-.459A1.025,1.025,0,0,1-6.475.566Z" transform="translate(43.32 7.5)"/>
        </g>
      </g>
    </g>
  </g>
</svg>
