<svg xmlns="http://www.w3.org/2000/svg" width="214" height="183" viewBox="0 0 214 183">
  <g id="Grupo_1070062" data-name="Grupo 1070062" transform="translate(-839 10967)">
    <rect id="Rectángulo_356322" data-name="Rectángulo 356322" width="214" height="183" rx="16" transform="translate(839 -10967)" fill="#ff6148"/>
    <g id="programacion_3_" data-name="programacion (3)" transform="translate(866 -10948)">
      <path id="Trazado_773307" data-name="Trazado 773307" d="M24,23.84h5.077v83.8H24Zm0,0" transform="translate(-16.384 -16.275)" fill="#e6e9ed"/>
      <path id="Trazado_773308" data-name="Trazado 773308" d="M40,23.922H179.625v83.749H40Zm0,0" transform="translate(-27.307 -16.331)" fill="#434a54"/>
      <path id="Trazado_773309" data-name="Trazado 773309" d="M247.616,331.648a3.808,3.808,0,1,1-3.808-3.808A3.807,3.807,0,0,1,247.616,331.648Zm0,0" transform="translate(-163.841 -223.807)" fill="#ccd1d9"/>
      <path id="Trazado_773310" data-name="Trazado 773310" d="M159.934,344v5.026a7.514,7.514,0,0,1-7.616,7.616H7.616A7.514,7.514,0,0,1,0,349.026V344a7.639,7.639,0,0,0,7.616,7.616h144.7A7.639,7.639,0,0,0,159.934,344Zm0,0" transform="translate(0 -234.839)" fill="#ccd1d9"/>
      <path id="Trazado_773311" data-name="Trazado 773311" d="M222.108,383.84l5.077,22.848H184.078l5.077-22.848Zm0,0" transform="translate(-125.665 -262.036)" fill="#ccd1d9"/>
      <path id="Trazado_773312" data-name="Trazado 773312" d="M79.967,311.84H0v10.205a7.639,7.639,0,0,0,7.616,7.616h144.7a7.639,7.639,0,0,0,7.616-7.616V311.84Zm0,12.693a3.808,3.808,0,1,1,3.808-3.808A3.8,3.8,0,0,1,79.967,324.533Zm0,0" transform="translate(0 -212.884)" fill="#e6e9ed"/>
      <path id="Trazado_773313" data-name="Trazado 773313" d="M159.934,7.616v91.34H0V7.616A7.64,7.64,0,0,1,7.616,0h144.7A7.639,7.639,0,0,1,159.934,7.616ZM152.318,91.34V7.565H7.616V91.34Zm0,0" fill="#656d78"/>
      <path id="Trazado_773314" data-name="Trazado 773314" d="M232.38,386.378l-.565-2.539H198.862l-.565,2.539Zm0,0" transform="translate(-135.371 -262.036)" fill="#aab2bd"/>
      <path id="Trazado_773315" data-name="Trazado 773315" d="M220.042,454.332H169.269a1.269,1.269,0,1,1,0-2.539h50.773a1.269,1.269,0,1,1,0,2.539Zm0,0" transform="translate(-114.689 -308.426)" fill="#e6e9ed"/>
      <path id="Trazado_773316" data-name="Trazado 773316" d="M71.424,46.461H61.269a1.269,1.269,0,1,1,0-2.539H71.424a1.269,1.269,0,1,1,0,2.539Zm0,0" transform="translate(-40.96 -29.984)" fill="#ffce54"/>
      <path id="Trazado_773317" data-name="Trazado 773317" d="M160.81,70.461H125.269a1.269,1.269,0,0,1,0-2.539H160.81a1.269,1.269,0,1,1,0,2.539Zm0,0" transform="translate(-84.651 -46.368)" fill="#ac92ec"/>
      <path id="Trazado_773318" data-name="Trazado 773318" d="M81.962,70.461H69.269a1.269,1.269,0,0,1,0-2.539H81.962a1.269,1.269,0,0,1,0,2.539Zm0,0" transform="translate(-46.422 -46.368)" fill="#ac92ec"/>
      <path id="Trazado_773319" data-name="Trazado 773319" d="M262.272,94.461h-33a1.269,1.269,0,1,1,0-2.539h33a1.269,1.269,0,1,1,0,2.539Zm0,0" transform="translate(-155.649 -62.752)" fill="#5d9cec"/>
      <path id="Trazado_773320" data-name="Trazado 773320" d="M359.424,94.461H349.269a1.269,1.269,0,0,1,0-2.539h10.155a1.269,1.269,0,0,1,0,2.539Zm0,0" transform="translate(-237.569 -62.752)" fill="#5d9cec"/>
      <path id="Trazado_773321" data-name="Trazado 773321" d="M120.426,94.461H77.269a1.269,1.269,0,1,1,0-2.539h43.157a1.269,1.269,0,1,1,0,2.539Zm0,0" transform="translate(-51.883 -62.752)" fill="#5d9cec"/>
      <path id="Trazado_773322" data-name="Trazado 773322" d="M100.9,142.461H93.285a1.269,1.269,0,1,1,0-2.539H100.9a1.269,1.269,0,0,1,0,2.539Zm0,0" transform="translate(-62.816 -95.521)" fill="#ed5565"/>
      <path id="Trazado_773323" data-name="Trazado 773323" d="M170.969,142.461H133.285a1.269,1.269,0,0,1,0-2.539h37.684a1.269,1.269,0,0,1,0,2.539Zm0,0" transform="translate(-90.123 -95.521)" fill="#ed5565"/>
      <path id="Trazado_773324" data-name="Trazado 773324" d="M143.658,118.461H85.269a1.269,1.269,0,1,1,0-2.539h58.389a1.269,1.269,0,1,1,0,2.539Zm0,0" transform="translate(-57.344 -79.136)" fill="#a0d468"/>
      <path id="Trazado_773325" data-name="Trazado 773325" d="M228.133,166.461H205.285a1.269,1.269,0,0,1,0-2.539h22.848a1.269,1.269,0,0,1,0,2.539Zm0,0" transform="translate(-139.276 -111.905)" fill="#4fc1e9"/>
      <path id="Trazado_773326" data-name="Trazado 773326" d="M128.442,190.461H85.285a1.269,1.269,0,0,1,0-2.539h43.157a1.269,1.269,0,0,1,0,2.539Zm0,0" transform="translate(-57.355 -128.289)" fill="#a0d468"/>
      <path id="Trazado_773327" data-name="Trazado 773327" d="M89.578,238.461H69.269a1.269,1.269,0,0,1,0-2.539H89.578a1.269,1.269,0,1,1,0,2.539Zm0,0" transform="translate(-46.422 -161.057)" fill="#ac92ec"/>
      <path id="Trazado_773328" data-name="Trazado 773328" d="M216.81,214.461H181.269a1.269,1.269,0,1,1,0-2.539H216.81a1.269,1.269,0,1,1,0,2.539Zm0,0" transform="translate(-122.881 -144.673)" fill="#5d9cec"/>
      <path id="Trazado_773329" data-name="Trazado 773329" d="M311.808,214.461h-2.539a1.269,1.269,0,0,1,0-2.539h2.539a1.269,1.269,0,1,1,0,2.539Zm0,0" transform="translate(-210.263 -144.673)" fill="#5d9cec"/>
      <path id="Trazado_773330" data-name="Trazado 773330" d="M105.194,214.461H77.269a1.269,1.269,0,1,1,0-2.539h27.925a1.269,1.269,0,1,1,0,2.539Zm0,0" transform="translate(-51.883 -144.673)" fill="#5d9cec"/>
      <path id="Trazado_773331" data-name="Trazado 773331" d="M71.424,262.461H61.269a1.269,1.269,0,1,1,0-2.539H71.424a1.269,1.269,0,0,1,0,2.539Zm0,0" transform="translate(-40.96 -177.441)" fill="#ffce54"/>
      <path id="Trazado_773332" data-name="Trazado 773332" d="M252.517,190.461H237.285a1.269,1.269,0,0,1,0-2.539h15.232a1.269,1.269,0,0,1,0,2.539Zm0,0" transform="translate(-161.121 -128.289)" fill="#a0d468"/>
      <path id="Trazado_773333" data-name="Trazado 773333" d="M311.055,166.461h-17.77a1.269,1.269,0,0,1,0-2.539h17.77a1.269,1.269,0,1,1,0,2.539Zm0,0" transform="translate(-199.351 -111.905)" fill="#4fc1e9"/>
      <path id="Trazado_773334" data-name="Trazado 773334" d="M123.749,166.461H93.285a1.269,1.269,0,1,1,0-2.539h30.464a1.269,1.269,0,0,1,0,2.539Zm0,0" transform="translate(-62.816 -111.905)" fill="#4fc1e9"/>
      <g id="Grupo_1046195" data-name="Grupo 1046195" transform="translate(7.616 13.924)">
        <path id="Trazado_773335" data-name="Trazado 773335" d="M25.269,165.148A1.27,1.27,0,0,0,24,163.879v2.539A1.269,1.269,0,0,0,25.269,165.148Zm0,0" transform="translate(-24 -125.799)" fill="#ccd1d9"/>
        <path id="Trazado_773336" data-name="Trazado 773336" d="M25.269,189.148A1.27,1.27,0,0,0,24,187.879v2.539A1.269,1.269,0,0,0,25.269,189.148Zm0,0" transform="translate(-24 -142.184)" fill="#ccd1d9"/>
        <path id="Trazado_773337" data-name="Trazado 773337" d="M25.269,213.148A1.27,1.27,0,0,0,24,211.879v2.539A1.269,1.269,0,0,0,25.269,213.148Zm0,0" transform="translate(-24 -158.568)" fill="#ccd1d9"/>
        <path id="Trazado_773338" data-name="Trazado 773338" d="M25.269,237.148A1.27,1.27,0,0,0,24,235.879v2.539A1.269,1.269,0,0,0,25.269,237.148Zm0,0" transform="translate(-24 -174.952)" fill="#ccd1d9"/>
        <path id="Trazado_773339" data-name="Trazado 773339" d="M25.269,261.148A1.27,1.27,0,0,0,24,259.879v2.539A1.269,1.269,0,0,0,25.269,261.148Zm0,0" transform="translate(-24 -191.336)" fill="#ccd1d9"/>
        <path id="Trazado_773340" data-name="Trazado 773340" d="M25.269,141.148A1.27,1.27,0,0,0,24,139.879v2.539A1.269,1.269,0,0,0,25.269,141.148Zm0,0" transform="translate(-24 -109.415)" fill="#ccd1d9"/>
        <path id="Trazado_773341" data-name="Trazado 773341" d="M25.269,117.148A1.27,1.27,0,0,0,24,115.879v2.539A1.269,1.269,0,0,0,25.269,117.148Zm0,0" transform="translate(-24 -93.031)" fill="#ccd1d9"/>
        <path id="Trazado_773342" data-name="Trazado 773342" d="M25.269,93.148A1.27,1.27,0,0,0,24,91.879v2.539A1.269,1.269,0,0,0,25.269,93.148Zm0,0" transform="translate(-24 -76.647)" fill="#ccd1d9"/>
        <path id="Trazado_773343" data-name="Trazado 773343" d="M25.269,69.148A1.27,1.27,0,0,0,24,67.879v2.539A1.269,1.269,0,0,0,25.269,69.148Zm0,0" transform="translate(-24 -60.263)" fill="#ccd1d9"/>
        <path id="Trazado_773344" data-name="Trazado 773344" d="M25.269,45.148A1.27,1.27,0,0,0,24,43.879v2.539A1.269,1.269,0,0,0,25.269,45.148Zm0,0" transform="translate(-24 -43.879)" fill="#ccd1d9"/>
      </g>
    </g>
  </g>
</svg>
