<svg xmlns="http://www.w3.org/2000/svg" width="214" height="183" viewBox="0 0 214 183">
  <g id="Grupo_1070060" data-name="Grupo 1070060" transform="translate(996 10498)">
    <rect id="Rectángulo_356318" data-name="Rectángulo 356318" width="214" height="183" rx="16" transform="translate(-996 -10498)" fill="#ff6148"/>
    <g id="memoria-ram" transform="translate(-959 -10477)">
      <path id="Trazado_773345" data-name="Trazado 773345" d="M107.773,18.818a4.853,4.853,0,0,0,6.843,0l6.843,6.843A4.839,4.839,0,1,0,128.3,32.5l11.975,11.975-95.8,95.8L32.5,128.3a4.839,4.839,0,1,0-6.843-6.843l-6.843-6.843a4.839,4.839,0,0,0-6.843-6.843L0,95.8,95.8,0l11.975,11.975A4.853,4.853,0,0,0,107.773,18.818Z" fill="#71c285"/>
      <g id="Grupo_1046197" data-name="Grupo 1046197" transform="translate(11.277 11.297)">
        <path id="Trazado_773346" data-name="Trazado 773346" d="M43.567,345.536a2.418,2.418,0,0,1-1.718-.725,2.342,2.342,0,0,1-.7-1.694A2.4,2.4,0,0,1,45.26,341.4a2.1,2.1,0,0,1,.533.774,2.643,2.643,0,0,1,.194.944,2.416,2.416,0,0,1-.194.919,2.118,2.118,0,0,1-.533.775A2.361,2.361,0,0,1,43.567,345.536Z" transform="translate(-41.148 -258.608)" fill="#4c8056"/>
        <path id="Trazado_773347" data-name="Trazado 773347" d="M343.175,46.04a2.414,2.414,0,0,1-1.718-.727,2.338,2.338,0,0,1-.7-1.693,2.4,2.4,0,0,1,.7-1.718,2.477,2.477,0,0,1,3.411,0,2.418,2.418,0,0,1,.725,1.718,2.481,2.481,0,0,1-2.419,2.419Z" transform="translate(-258.645 -41.222)" fill="#4c8056"/>
      </g>
      <g id="Grupo_1046198" data-name="Grupo 1046198" transform="translate(23.231 59.168)">
        <path id="Trazado_773348" data-name="Trazado 773348" d="M85.476,334.1l5.132-5.132a2.419,2.419,0,0,1,3.421,0l13.686,13.686a2.419,2.419,0,0,1,0,3.421l-5.132,5.132a2.419,2.419,0,0,1-3.421,0L85.476,337.52A2.419,2.419,0,0,1,85.476,334.1Z" transform="translate(-84.768 -297.464)" fill="#5e5f62"/>
        <path id="Trazado_773349" data-name="Trazado 773349" d="M141.728,277.932l5.132-5.132a2.419,2.419,0,0,1,3.421,0l13.686,13.686a2.419,2.419,0,0,1,0,3.421l-5.132,5.132a2.419,2.419,0,0,1-3.421,0l-13.686-13.686A2.419,2.419,0,0,1,141.728,277.932Z" transform="translate(-125.603 -256.69)" fill="#5e5f62"/>
        <path id="Trazado_773350" data-name="Trazado 773350" d="M197.871,221.735,203,216.6a2.419,2.419,0,0,1,3.421,0l13.686,13.686a2.419,2.419,0,0,1,0,3.421l-5.132,5.132a2.419,2.419,0,0,1-3.421,0l-13.686-13.686A2.419,2.419,0,0,1,197.871,221.735Z" transform="translate(-166.36 -215.895)" fill="#5e5f62"/>
      </g>
      <path id="Trazado_773351" data-name="Trazado 773351" d="M296.823,102.636l-3.411,3.411-3.435,3.435-3.411,3.411-3.435,3.435-3.411,3.411-8.564,8.564a2.409,2.409,0,0,1-3.411,0L254.05,114.611a2.438,2.438,0,0,1,0-3.435l25.669-25.644a2.409,2.409,0,0,1,3.411,0L296.823,99.2A2.438,2.438,0,0,1,296.823,102.636Z" transform="translate(-183.912 -61.577)" fill="#ecf0f1"/>
      <g id="Grupo_1046199" data-name="Grupo 1046199" transform="translate(88.254 40.351)">
        <path id="Trazado_773352" data-name="Trazado 773352" d="M379.491,151.354l-3.435,3.435-3.411-3.435a2.367,2.367,0,0,1,0-3.411,2.409,2.409,0,0,1,3.411,0Z" transform="translate(-358.245 -147.235)" fill="#5e5f62"/>
        <path id="Trazado_773353" data-name="Trazado 773353" d="M354.56,176.338l-3.435,3.435-3.411-3.435a2.412,2.412,0,1,1,3.411-3.411Z" transform="translate(-340.16 -165.373)" fill="#5e5f62"/>
        <path id="Trazado_773354" data-name="Trazado 773354" d="M329.578,201.321l-3.435,3.435-3.411-3.435a2.412,2.412,0,1,1,3.411-3.411Z" transform="translate(-322.025 -183.509)" fill="#5e5f62"/>
      </g>
      <g id="Grupo_1046200" data-name="Grupo 1046200" transform="translate(81.404 33.52)">
        <path id="Trazado_773355" data-name="Trazado 773355" d="M299.452,158.907a2.419,2.419,0,0,1-1.71-4.13l6.843-6.842a2.419,2.419,0,1,1,3.421,3.421l-6.843,6.842A2.411,2.411,0,0,1,299.452,158.907Z" transform="translate(-297.033 -140.397)" fill="#a5a5a4"/>
        <path id="Trazado_773356" data-name="Trazado 773356" d="M349.356,127.137A2.413,2.413,0,0,1,347.662,123a2.438,2.438,0,0,1,3.943.774,2.582,2.582,0,0,1,.17.944,2.437,2.437,0,0,1-.7,1.718A2.543,2.543,0,0,1,349.356,127.137Z" transform="translate(-333.26 -122.309)" fill="#a5a5a4"/>
      </g>
      <rect id="Rectángulo_357247" data-name="Rectángulo 357247" width="9.677" height="9.677" transform="translate(51.312 133.428) rotate(135)" fill="#b19046"/>
      <rect id="Rectángulo_357248" data-name="Rectángulo 357248" width="116.121" height="9.677" transform="translate(133.423 51.313) rotate(135)" fill="#e4c05c"/>
      <rect id="Rectángulo_357249" data-name="Rectángulo 357249" width="9.675" height="9.675" transform="translate(140.267 44.476) rotate(135)" fill="#b19046"/>
    </g>
  </g>
</svg>
